  0
SECTION
  2
HEADER
  9
$ACADVER
  1
AC1018
  9
$ACADMAINTVER
 70
     0
  9
$DWGCODEPAGE
  3
ANSI_932
  9
$INSBASE
 10
0.0
 20
0.0
 30
0.0
  9
$EXTMIN
 10
1.000000000000000E+20
 20
1.000000000000000E+20
 30
1.000000000000000E+20
  9
$EXTMAX
 10
-1.000000000000000E+20
 20
-1.000000000000000E+20
 30
-1.000000000000000E+20
  9
$LIMMIN
 10
0.0
 20
0.0
  9
$LIMMAX
 10
12.0
 20
9.0
  9
$ORTHOMODE
 70
     0
  9
$REGENMODE
 70
     1
  9
$FILLMODE
 70
     1
  9
$QTEXTMODE
 70
     0
  9
$MIRRTEXT
 70
     1
  9
$LTSCALE
 40
1.0
  9
$ATTMODE
 70
     1
  9
$TEXTSIZE
 40
0.2
  9
$TRACEWID
 40
0.05
  9
$TEXTSTYLE
  7
Standard
  9
$CLAYER
  8
0
  9
$CELTYPE
  6
ByLayer
  9
$CECOLOR
 62
   256
  9
$CELTSCALE
 40
1.0
  9
$DISPSILH
 70
     0
  9
$DIMSCALE
 40
1.0
  9
$DIMASZ
 40
0.18
  9
$DIMEXO
 40
0.0625
  9
$DIMDLI
 40
0.38
  9
$DIMRND
 40
0.0
  9
$DIMDLE
 40
0.0
  9
$DIMEXE
 40
0.18
  9
$DIMTP
 40
0.0
  9
$DIMTM
 40
0.0
  9
$DIMTXT
 40
0.18
  9
$DIMCEN
 40
0.09
  9
$DIMTSZ
 40
0.0
  9
$DIMTOL
 70
     0
  9
$DIMLIM
 70
     0
  9
$DIMTIH
 70
     1
  9
$DIMTOH
 70
     1
  9
$DIMSE1
 70
     0
  9
$DIMSE2
 70
     0
  9
$DIMTAD
 70
     0
  9
$DIMZIN
 70
     0
  9
$DIMBLK
  1

  9
$DIMASO
 70
     1
  9
$DIMSHO
 70
     1
  9
$DIMPOST
  1

  9
$DIMAPOST
  1

  9
$DIMALT
 70
     0
  9
$DIMALTD
 70
     2
  9
$DIMALTF
 40
25.4
  9
$DIMLFAC
 40
1.0
  9
$DIMTOFL
 70
     0
  9
$DIMTVP
 40
0.0
  9
$DIMTIX
 70
     0
  9
$DIMSOXD
 70
     0
  9
$DIMSAH
 70
     0
  9
$DIMBLK1
  1

  9
$DIMBLK2
  1

  9
$DIMSTYLE
  2
Standard
  9
$DIMCLRD
 70
     0
  9
$DIMCLRE
 70
     0
  9
$DIMCLRT
 70
     0
  9
$DIMTFAC
 40
1.0
  9
$DIMGAP
 40
0.09
  9
$DIMJUST
 70
     0
  9
$DIMSD1
 70
     0
  9
$DIMSD2
 70
     0
  9
$DIMTOLJ
 70
     1
  9
$DIMTZIN
 70
     0
  9
$DIMALTZ
 70
     0
  9
$DIMALTTZ
 70
     0
  9
$DIMUPT
 70
     0
  9
$DIMDEC
 70
     4
  9
$DIMTDEC
 70
     4
  9
$DIMALTU
 70
     2
  9
$DIMALTTD
 70
     2
  9
$DIMTXSTY
  7
Standard
  9
$DIMAUNIT
 70
     0
  9
$DIMADEC
 70
     0
  9
$DIMALTRND
 40
0.0
  9
$DIMAZIN
 70
     0
  9
$DIMDSEP
 70
    46
  9
$DIMATFIT
 70
     3
  9
$DIMFRAC
 70
     0
  9
$DIMLDRBLK
  1

  9
$DIMLUNIT
 70
     2
  9
$DIMLWD
 70
    -2
  9
$DIMLWE
 70
    -2
  9
$DIMTMOVE
 70
     0
  9
$LUNITS
 70
     2
  9
$LUPREC
 70
     4
  9
$SKETCHINC
 40
0.1
  9
$FILLETRAD
 40
0.5
  9
$AUNITS
 70
     0
  9
$AUPREC
 70
     0
  9
$MENU
  1
.
  9
$ELEVATION
 40
0.0
  9
$PELEVATION
 40
0.0
  9
$THICKNESS
 40
0.0
  9
$LIMCHECK
 70
     0
  9
$CHAMFERA
 40
0.5
  9
$CHAMFERB
 40
0.5
  9
$CHAMFERC
 40
1.0
  9
$CHAMFERD
 40
0.0
  9
$SKPOLY
 70
     0
  9
$TDCREATE
 40
2456579.980462963
  9
$TDUCREATE
 40
2456580.188796296
  9
$TDUPDATE
 40
2456579.980462974
  9
$TDUUPDATE
 40
2456580.188796308
  9
$TDINDWG
 40
0.0000000116
  9
$TDUSRTIMER
 40
0.0000000116
  9
$USRTIMER
 70
     1
  9
$ANGBASE
 50
0.0
  9
$ANGDIR
 70
     0
  9
$PDMODE
 70
     0
  9
$PDSIZE
 40
0.0
  9
$PLINEWID
 40
0.0
  9
$SPLFRAME
 70
     0
  9
$SPLINETYPE
 70
     6
  9
$SPLINESEGS
 70
     8
  9
$HANDSEED
  5
B8
  9
$SURFTAB1
 70
     6
  9
$SURFTAB2
 70
     6
  9
$SURFTYPE
 70
     6
  9
$SURFU
 70
     6
  9
$SURFV
 70
     6
  9
$UCSBASE
  2

  9
$UCSNAME
  2

  9
$UCSORG
 10
0.0
 20
0.0
 30
0.0
  9
$UCSXDIR
 10
1.0
 20
0.0
 30
0.0
  9
$UCSYDIR
 10
0.0
 20
1.0
 30
0.0
  9
$UCSORTHOREF
  2

  9
$UCSORTHOVIEW
 70
     0
  9
$UCSORGTOP
 10
0.0
 20
0.0
 30
0.0
  9
$UCSORGBOTTOM
 10
0.0
 20
0.0
 30
0.0
  9
$UCSORGLEFT
 10
0.0
 20
0.0
 30
0.0
  9
$UCSORGRIGHT
 10
0.0
 20
0.0
 30
0.0
  9
$UCSORGFRONT
 10
0.0
 20
0.0
 30
0.0
  9
$UCSORGBACK
 10
0.0
 20
0.0
 30
0.0
  9
$PUCSBASE
  2

  9
$PUCSNAME
  2

  9
$PUCSORG
 10
0.0
 20
0.0
 30
0.0
  9
$PUCSXDIR
 10
1.0
 20
0.0
 30
0.0
  9
$PUCSYDIR
 10
0.0
 20
1.0
 30
0.0
  9
$PUCSORTHOREF
  2

  9
$PUCSORTHOVIEW
 70
     0
  9
$PUCSORGTOP
 10
0.0
 20
0.0
 30
0.0
  9
$PUCSORGBOTTOM
 10
0.0
 20
0.0
 30
0.0
  9
$PUCSORGLEFT
 10
0.0
 20
0.0
 30
0.0
  9
$PUCSORGRIGHT
 10
0.0
 20
0.0
 30
0.0
  9
$PUCSORGFRONT
 10
0.0
 20
0.0
 30
0.0
  9
$PUCSORGBACK
 10
0.0
 20
0.0
 30
0.0
  9
$USERI1
 70
     0
  9
$USERI2
 70
     0
  9
$USERI3
 70
     0
  9
$USERI4
 70
     0
  9
$USERI5
 70
     0
  9
$USERR1
 40
0.0
  9
$USERR2
 40
0.0
  9
$USERR3
 40
0.0
  9
$USERR4
 40
0.0
  9
$USERR5
 40
0.0
  9
$WORLDVIEW
 70
     1
  9
$SHADEDGE
 70
     3
  9
$SHADEDIF
 70
    70
  9
$TILEMODE
 70
     1
  9
$MAXACTVP
 70
    64
  9
$PINSBASE
 10
0.0
 20
0.0
 30
0.0
  9
$PLIMCHECK
 70
     0
  9
$PEXTMIN
 10
1.000000000000000E+20
 20
1.000000000000000E+20
 30
1.000000000000000E+20
  9
$PEXTMAX
 10
-1.000000000000000E+20
 20
-1.000000000000000E+20
 30
-1.000000000000000E+20
  9
$PLIMMIN
 10
0.0
 20
0.0
  9
$PLIMMAX
 10
12.0
 20
9.0
  9
$UNITMODE
 70
     0
  9
$VISRETAIN
 70
     1
  9
$PLINEGEN
 70
     0
  9
$PSLTSCALE
 70
     1
  9
$TREEDEPTH
 70
  3020
  9
$CMLSTYLE
  2
Standard
  9
$CMLJUST
 70
     0
  9
$CMLSCALE
 40
1.0
  9
$PROXYGRAPHICS
 70
     1
  9
$MEASUREMENT
 70
     0
  9
$CELWEIGHT
370
    -1
  9
$ENDCAPS
280
     0
  9
$JOINSTYLE
280
     0
  9
$LWDISPLAY
290
     1
  9
$INSUNITS
 70
     1
  9
$HYPERLINKBASE
  1

  9
$STYLESHEET
  1

  9
$XEDIT
290
     1
  9
$CEPSNTYPE
380
     0
  9
$PSTYLEMODE
290
     1
  9
$FINGERPRINTGUID
  2
{3C7CF1FC-7E96-0682-1155-0855BDBD41A0}
  9
$VERSIONGUID
  2
{FAEB1C32-E019-11D5-929B-00C0DF256EC4}
  9
$EXTNAMES
290
     1
  9
$PSVPSCALE
 40
0.0
  9
$OLESTARTUP
290
     0
  9
$SORTENTS
280
   127
  9
$INDEXCTL
280
     0
  9
$HIDETEXT
280
     1
  9
$XCLIPFRAME
290
     0
  9
$HALOGAP
280
     0
  9
$OBSCOLOR
 70
   257
  9
$OBSLTYPE
280
     0
  9
$INTERSECTIONDISPLAY
280
     0
  9
$INTERSECTIONCOLOR
 70
   257
  9
$DIMASSOC
280
     2
  9
$PROJECTNAME
  1

  0
ENDSEC
  0
SECTION
  2
CLASSES
  0
CLASS
  1
ACDBDICTIONARYWDFLT
  2
AcDbDictionaryWithDefault
  3
ObjectDBX Classes
 90
        0
 91
        3
280
     0
281
     0
  0
CLASS
  1
VISUALSTYLE
  2
AcDbVisualStyle
  3
ObjectDBX Classes
 90
     4095
 91
        3
280
     0
281
     0
  0
ENDSEC
  0
SECTION
  2
TABLES
  0
TABLE
  2
VPORT
  5
8
330
0
100
AcDbSymbolTable
 70
     1
  0
VPORT
  5
29
330
8
100
AcDbSymbolTableRecord
100
AcDbViewportTableRecord
  2
*Active
 70
     0
 10
0.0
 20
0.0
 11
1.0
 21
1.0
 12
0.0
 22
0.0
 13
0.0
 23
0.0
 14
0.5
 24
0.5
 15
0.5
 25
0.5
 16
0.0
 26
0.0
 36
1.0
 17
107.9499999730125
 27
-139.699999965075
 37
0.0
 40
279.39999993015
 41
0.7727272727272728
 42
50.0
 43
0.0
 44
0.0
 50
0.0
 51
0.0
 71
     0
 72
   100
 73
     1
 74
     3
 75
     0
 76
     0
 77
     0
 78
     0
281
     0
 65
     1
110
0.0
120
0.0
130
0.0
111
1.0
121
0.0
131
0.0
112
0.0
122
1.0
132
0.0
 79
     0
146
0.0
  0
ENDTAB
  0
TABLE
  2
LTYPE
  5
5
330
0
100
AcDbSymbolTable
 70
     1
  0
LTYPE
  5
14
330
5
100
AcDbSymbolTableRecord
100
AcDbLinetypeTableRecord
  2
ByBlock
 70
     0
  3

 72
    65
 73
     0
 40
0.0
  0
LTYPE
  5
15
330
5
100
AcDbSymbolTableRecord
100
AcDbLinetypeTableRecord
  2
ByLayer
 70
     0
  3

 72
    65
 73
     0
 40
0.0
  0
LTYPE
  5
16
330
5
100
AcDbSymbolTableRecord
100
AcDbLinetypeTableRecord
  2
Continuous
 70
     0
  3
Solid line
 72
    65
 73
     0
 40
0.0
  0
ENDTAB
  0
TABLE
  2
LAYER
  5
2
330
0
100
AcDbSymbolTable
 70
     3
  0
LAYER
  5
10
330
2
100
AcDbSymbolTableRecord
100
AcDbLayerTableRecord
  2
0
 70
     0
 62
     7
  6
Continuous
370
    -3
390
F
  0
LAYER
  5
3B
330
2
100
AcDbSymbolTableRecord
100
AcDbLayerTableRecord
  2
Ebene 1
 70
     0
 62
     7
  6
Continuous
370
    -3
390
F
  0
LAYER
  5
4C
330
2
100
AcDbSymbolTableRecord
100
AcDbLayerTableRecord
  2
cutout-objects
 70
     0
 62
     7
  6
Continuous
370
    -3
390
F
  0
ENDTAB
  0
TABLE
  2
STYLE
  5
3
330
0
100
AcDbSymbolTable
 70
     1
  0
STYLE
  5
11
330
3
100
AcDbSymbolTableRecord
100
AcDbTextStyleTableRecord
  2
Standard
 70
     0
 40
0.0
 41
1.0
 50
0.0
 71
     0
 42
0.2
  3
txt
  4

  0
ENDTAB
  0
TABLE
  2
VIEW
  5
6
330
0
100
AcDbSymbolTable
 70
     0
  0
ENDTAB
  0
TABLE
  2
UCS
  5
7
330
0
100
AcDbSymbolTable
 70
     0
  0
ENDTAB
  0
TABLE
  2
APPID
  5
9
330
0
100
AcDbSymbolTable
 70
     1
  0
APPID
  5
12
330
9
100
AcDbSymbolTableRecord
100
AcDbRegAppTableRecord
  2
ACAD
 70
     0
  0
ENDTAB
  0
TABLE
  2
DIMSTYLE
  5
A
330
0
100
AcDbSymbolTable
 70
     1
100
AcDbDimStyleTable
  0
DIMSTYLE
105
27
330
A
100
AcDbSymbolTableRecord
100
AcDbDimStyleTableRecord
  2
Standard
 70
     0
340
11
  0
ENDTAB
  0
TABLE
  2
BLOCK_RECORD
  5
1
330
0
100
AcDbSymbolTable
 70
     3
  0
BLOCK_RECORD
  5
1F
330
1
100
AcDbSymbolTableRecord
100
AcDbBlockTableRecord
  2
*Model_Space
340
22
  0
BLOCK_RECORD
  5
1B
330
1
100
AcDbSymbolTableRecord
100
AcDbBlockTableRecord
  2
*Paper_Space
340
1E
  0
BLOCK_RECORD
  5
23
330
1
100
AcDbSymbolTableRecord
100
AcDbBlockTableRecord
  2
*Paper_Space0
340
26
  0
BLOCK_RECORD
  5
4D
330
1
100
AcDbSymbolTableRecord
100
AcDbBlockTableRecord
  2
block 2
340
0
102
{BLKREFS
331
4E
102
}
  0
BLOCK_RECORD
  5
8C
330
1
100
AcDbSymbolTableRecord
100
AcDbBlockTableRecord
  2
block 3
340
0
102
{BLKREFS
331
8D
102
}
  0
ENDTAB
  0
ENDSEC
  0
SECTION
  2
BLOCKS
  0
BLOCK
  5
20
330
1F
100
AcDbEntity
  8
0
100
AcDbBlockBegin
  2
*Model_Space
 70
     0
 71
     0
 10
0.0
 20
0.0
 30
0.0
  3
*Model_Space
  1

  0
ENDBLK
  5
21
330
1F
100
AcDbEntity
  8
0
100
AcDbBlockEnd
  0
BLOCK
  5
1C
330
1B
100
AcDbEntity
 67
     1
  8
0
100
AcDbBlockBegin
  2
*Paper_Space
 70
     0
 71
     0
 10
0.0
 20
0.0
 30
0.0
  3
*Paper_Space
  1

  0
ENDBLK
  5
1D
330
1B
100
AcDbEntity
 67
     1
  8
0
100
AcDbBlockEnd
  0
BLOCK
  5
24
330
23
100
AcDbEntity
  8
0
100
AcDbBlockBegin
  2
*Paper_Space0
 70
     0
 71
     0
 10
0.0
 20
0.0
 30
0.0
  3
*Paper_Space0
  1

  0
ENDBLK
  5
25
330
23
100
AcDbEntity
  8
0
100
AcDbBlockEnd
  0
BLOCK
  5
4F
330
4D
100
AcDbEntity
  8
0
100
AcDbBlockBegin
  2
block 2
 70
     0
 71
     0
 10
0.0
 20
0.0
 30
0.0
  3
block 2
  1

  0
SPLINE
  5
51
330
4D
100
AcDbEntity
  8
cutout-objects
 62
     7
370
    35
100
AcDbSpline
210
0.0
220
0.0
230
1.0
 70
    11
 71
     3
 72
    17
 73
    13
 74
     0
 42
0.0000000001
 43
0.0000000001
 40
0.0
 40
0.0
 40
0.0
 40
0.0
 40
1.0
 40
1.0
 40
1.0
 40
2.0
 40
2.0
 40
2.0
 40
3.0
 40
3.0
 40
3.0
 40
4.0
 40
4.0
 40
4.0
 40
4.0
 10
102.8591823744588
 20
-53.40225286208346
 30
0.0
 10
102.8591823744588
 20
-55.36285670273915
 30
0.0
 10
101.2697875723388
 20
-56.95225150485916
 30
0.0
 10
99.30918373168312
 20
-56.95225150485916
 30
0.0
 10
97.34857989102744
 20
-56.95225150485916
 30
0.0
 10
95.75918508890743
 20
-55.36285670273915
 30
0.0
 10
95.75918508890743
 20
-53.40225286208346
 30
0.0
 10
95.75918508890743
 20
-51.44164902142779
 30
0.0
 10
97.34857989102744
 20
-49.85225421930777
 30
0.0
 10
99.30918373168312
 20
-49.85225421930777
 30
0.0
 10
101.2697875723388
 20
-49.85225421930777
 30
0.0
 10
102.8591823744588
 20
-51.44164902142779
 30
0.0
 10
102.8591823744588
 20
-53.40225286208346
 30
0.0
  0
HATCH
  5
52
330
4D
100
AcDbEntity
  8
cutout-objects
 62
     7
100
AcDbHatch
 10
0.0
 20
0.0
 30
0.0
210
0.0
220
0.0
230
1.0
  2
SOLID
 70
     1
 71
     0
 91
        1
 92
        1
 93
        1
 72
     4
 94
        3
 73
     0
 74
     1
 95
       17
 96
       13
 40
0.0
 40
0.0
 40
0.0
 40
0.0
 40
1.0
 40
1.0
 40
1.0
 40
2.0
 40
2.0
 40
2.0
 40
3.0
 40
3.0
 40
3.0
 40
4.0
 40
4.0
 40
4.0
 40
4.0
 10
102.8591823744588
 20
-53.40225286208346
 10
102.8591823744588
 20
-55.36285670273915
 10
101.2697875723388
 20
-56.95225150485916
 10
99.30918373168312
 20
-56.95225150485916
 10
97.34857989102744
 20
-56.95225150485916
 10
95.75918508890743
 20
-55.36285670273915
 10
95.75918508890743
 20
-53.40225286208346
 10
95.75918508890743
 20
-51.44164902142779
 10
97.34857989102744
 20
-49.85225421930777
 10
99.30918373168312
 20
-49.85225421930777
 10
101.2697875723388
 20
-49.85225421930777
 10
102.8591823744588
 20
-51.44164902142779
 10
102.8591823744588
 20
-53.40225286208346
 97
        0
 75
     2
 76
     1
 98
        0
  0
SPLINE
  5
53
330
4D
100
AcDbEntity
  8
cutout-objects
 62
     7
370
    35
100
AcDbSpline
210
0.0
220
0.0
230
1.0
 70
    11
 71
     3
 72
    17
 73
    13
 74
     0
 42
0.0000000001
 43
0.0000000001
 40
0.0
 40
0.0
 40
0.0
 40
0.0
 40
1.0
 40
1.0
 40
1.0
 40
2.0
 40
2.0
 40
2.0
 40
3.0
 40
3.0
 40
3.0
 40
4.0
 40
4.0
 40
4.0
 40
4.0
 10
115.3090684390547
 20
-53.40225286208346
 30
0.0
 10
115.3090684390547
 20
-54.39633516435231
 30
0.0
 10
114.5029160955062
 20
-55.20231525312651
 30
0.0
 10
113.5086615384631
 20
-55.20231525312651
 30
0.0
 10
112.51440698142
 20
-55.20231525312651
 30
0.0
 10
111.7089436569686
 20
-54.39633516435231
 30
0.0
 10
111.7089436569686
 20
-53.40225286208346
 30
0.0
 10
111.7089436569686
 20
-52.40817055981463
 30
0.0
 10
112.51440698142
 20
-51.60219047104043
 30
0.0
 10
113.5086615384631
 20
-51.60219047104043
 30
0.0
 10
114.5029160955062
 20
-51.60219047104043
 30
0.0
 10
115.3090684390547
 20
-52.40817055981463
 30
0.0
 10
115.3090684390547
 20
-53.40225286208346
 30
0.0
  0
HATCH
  5
54
330
4D
100
AcDbEntity
  8
cutout-objects
 62
     7
100
AcDbHatch
 10
0.0
 20
0.0
 30
0.0
210
0.0
220
0.0
230
1.0
  2
SOLID
 70
     1
 71
     0
 91
        1
 92
        1
 93
        1
 72
     4
 94
        3
 73
     0
 74
     1
 95
       17
 96
       13
 40
0.0
 40
0.0
 40
0.0
 40
0.0
 40
1.0
 40
1.0
 40
1.0
 40
2.0
 40
2.0
 40
2.0
 40
3.0
 40
3.0
 40
3.0
 40
4.0
 40
4.0
 40
4.0
 40
4.0
 10
115.3090684390547
 20
-53.40225286208346
 10
115.3090684390547
 20
-54.39633516435231
 10
114.5029160955062
 20
-55.20231525312651
 10
113.5086615384631
 20
-55.20231525312651
 10
112.51440698142
 20
-55.20231525312651
 10
111.7089436569686
 20
-54.39633516435231
 10
111.7089436569686
 20
-53.40225286208346
 10
111.7089436569686
 20
-52.40817055981463
 10
112.51440698142
 20
-51.60219047104043
 10
113.5086615384631
 20
-51.60219047104043
 10
114.5029160955062
 20
-51.60219047104043
 10
115.3090684390547
 20
-52.40817055981463
 10
115.3090684390547
 20
-53.40225286208346
 97
        0
 75
     2
 76
     1
 98
        0
  0
POLYLINE
  5
55
330
4D
100
AcDbEntity
  8
cutout-objects
 62
     7
370
    35
100
AcDb2dPolyline
 66
     1
 10
0.0
 20
0.0
 30
0.0
  0
VERTEX
  5
56
330
55
100
AcDbEntity
  8
cutout-objects
 62
     7
370
    35
100
AcDbVertex
100
AcDb2dVertex
 10
101.7557182905333
 20
-50.65237764575705
 30
0.0
  0
VERTEX
  5
57
330
55
100
AcDbEntity
  8
cutout-objects
 62
     7
370
    35
100
AcDbVertex
100
AcDb2dVertex
 10
113.5090060480116
 20
-51.60219047104043
 30
0.0
  0
VERTEX
  5
58
330
55
100
AcDbEntity
  8
cutout-objects
 62
     7
370
    35
100
AcDbVertex
100
AcDb2dVertex
 10
113.5090060480116
 20
-55.20231525312651
 30
0.0
  0
VERTEX
  5
59
330
55
100
AcDbEntity
  8
cutout-objects
 62
     7
370
    35
100
AcDbVertex
100
AcDb2dVertex
 10
101.7557182905333
 20
-56.15230033318415
 30
0.0
  0
VERTEX
  5
5A
330
55
100
AcDbEntity
  8
cutout-objects
 62
     7
370
    35
100
AcDbVertex
100
AcDb2dVertex
 10
101.7557182905333
 20
-50.65237764575705
 30
0.0
  0
SEQEND
  5
5B
330
55
100
AcDbEntity
  8
cutout-objects
370
    35
  0
HATCH
  5
5C
330
4D
100
AcDbEntity
  8
cutout-objects
 62
     7
100
AcDbHatch
 10
0.0
 20
0.0
 30
0.0
210
0.0
220
0.0
230
1.0
  2
SOLID
 70
     1
 71
     0
 91
        1
 92
        1
 93
        4
 72
     1
 10
101.7557182905333
 20
-50.65237764575705
 11
113.5090060480116
 21
-51.60219047104043
 72
     1
 10
113.5090060480116
 20
-51.60219047104043
 11
113.5090060480116
 21
-55.20231525312651
 72
     1
 10
113.5090060480116
 20
-55.20231525312651
 11
101.7557182905333
 21
-56.15230033318415
 72
     1
 10
101.7557182905333
 20
-56.15230033318415
 11
101.7557182905333
 21
-50.65237764575705
 97
        0
 75
     2
 76
     1
 98
        0
  0
ENDBLK
  5
50
330
4D
100
AcDbEntity
  8
0
100
AcDbBlockEnd
  0
BLOCK
  5
8E
330
8C
100
AcDbEntity
  8
0
100
AcDbBlockBegin
  2
block 3
 70
     0
 71
     0
 10
0.0
 20
0.0
 30
0.0
  3
block 3
  1

  0
SPLINE
  5
90
330
8C
100
AcDbEntity
  8
cutout-objects
370
     0
100
AcDbSpline
210
0.0
220
0.0
230
1.0
 70
    11
 71
     3
 72
    47
 73
    43
 74
     0
 42
0.0000000001
 43
0.0000000001
 40
0.0
 40
0.0
 40
0.0
 40
0.0
 40
1.0
 40
1.0
 40
1.0
 40
2.0
 40
2.0
 40
2.0
 40
3.0
 40
3.0
 40
3.0
 40
4.0
 40
4.0
 40
4.0
 40
5.0
 40
5.0
 40
5.0
 40
6.0
 40
6.0
 40
6.0
 40
7.0
 40
7.0
 40
7.0
 40
8.0
 40
8.0
 40
8.0
 40
9.0
 40
9.0
 40
9.0
 40
10.0
 40
10.0
 40
10.0
 40
11.0
 40
11.0
 40
11.0
 40
12.0
 40
12.0
 40
12.0
 40
13.0
 40
13.0
 40
13.0
 40
14.0
 40
14.0
 40
14.0
 40
14.0
 10
23.61182318203107
 20
-224.3346272225622
 30
0.0
 10
23.77684325577454
 20
-224.4362575393771
 30
0.0
 10
24.01799993974203
 20
-224.5210068883142
 30
0.0
 10
24.27190347700494
 20
-224.5210068883142
 30
0.0
 10
24.64845241354275
 20
-224.5210068883142
 30
0.0
 10
24.86842176027595
 20
-224.3218803692668
 30
0.0
 10
24.86842176027595
 20
-224.0342148962484
 30
0.0
 10
24.86842176027595
 20
-223.7675645056901
 30
0.0
 10
24.71614853982791
 20
-223.615291285242
 30
0.0
 10
24.33115911935124
 20
-223.4674966889248
 30
0.0
 10
23.86572671929398
 20
-223.3024766151813
 30
0.0
 10
23.57806124627562
 20
-223.0613199312139
 30
0.0
 10
23.57806124627562
 20
-222.6592772880852
 30
0.0
 10
23.57806124627562
 20
-222.214859970488
 30
0.0
 10
23.94599744410031
 20
-221.884819823001
 30
0.0
 10
24.50031330767701
 20
-221.884819823001
 30
0.0
 10
24.79228515005193
 20
-221.884819823001
 30
0.0
 10
25.00381401284627
 20
-221.9526882040605
 30
0.0
 10
25.13076578147773
 20
-222.0246906997022
 30
0.0
 10
25.13076578147773
 20
-222.0246906997022
 30
0.0
 10
25.02913546466286
 20
-222.325103026016
 30
0.0
 10
25.02913546466286
 20
-222.325103026016
 30
0.0
 10
24.93611788656111
 20
-222.2741156128343
 30
0.0
 10
24.74577636100106
 20
-222.1897107734456
 30
0.0
 10
24.48756645438158
 20
-222.1897107734456
 30
0.0
 10
24.09844291932261
 20
-222.1897107734456
 30
0.0
 10
23.95030381345687
 20
-222.4222547187
 30
0.0
 10
23.95030381345687
 20
-222.6169026136166
 30
0.0
 10
23.95030381345687
 20
-222.883553004175
 30
0.0
 10
24.1237643711392
 20
-223.0144666326144
 30
0.0
 10
24.51719427555473
 20
-223.167084362611
 30
0.0
 10
24.99950764348971
 20
-223.3531195188145
 30
0.0
 10
25.24497069681376
 20
-223.5856634640689
 30
0.0
 10
25.24497069681376
 20
-224.0045870750752
 30
0.0
 10
25.24497069681376
 20
-224.4448702780902
 30
0.0
 10
24.91923691868339
 20
-224.8255533292103
 30
0.0
 10
24.24640977041409
 20
-224.8255533292103
 30
0.0
 10
23.97149115069116
 20
-224.8255533292103
 30
0.0
 10
23.67107882437737
 20
-224.7449380948555
 30
0.0
 10
23.51880560392933
 20
-224.6436522875891
 30
0.0
 10
23.51880560392933
 20
-224.6436522875891
 30
0.0
 10
23.61182318203107
 20
-224.3346272225622
 30
0.0
 10
23.61182318203107
 20
-224.3346272225622
 30
0.0
  0
HATCH
  5
91
330
8C
100
AcDbEntity
  8
cutout-objects
 62
     7
100
AcDbHatch
 10
0.0
 20
0.0
 30
0.0
210
0.0
220
0.0
230
1.0
  2
SOLID
 70
     1
 71
     0
 91
        1
 92
        1
 93
        1
 72
     4
 94
        3
 73
     0
 74
     1
 95
       47
 96
       43
 40
0.0
 40
0.0
 40
0.0
 40
0.0
 40
1.0
 40
1.0
 40
1.0
 40
2.0
 40
2.0
 40
2.0
 40
3.0
 40
3.0
 40
3.0
 40
4.0
 40
4.0
 40
4.0
 40
5.0
 40
5.0
 40
5.0
 40
6.0
 40
6.0
 40
6.0
 40
7.0
 40
7.0
 40
7.0
 40
8.0
 40
8.0
 40
8.0
 40
9.0
 40
9.0
 40
9.0
 40
10.0
 40
10.0
 40
10.0
 40
11.0
 40
11.0
 40
11.0
 40
12.0
 40
12.0
 40
12.0
 40
13.0
 40
13.0
 40
13.0
 40
14.0
 40
14.0
 40
14.0
 40
14.0
 10
23.61182318203107
 20
-224.3346272225622
 10
23.77684325577454
 20
-224.4362575393771
 10
24.01799993974203
 20
-224.5210068883142
 10
24.27190347700494
 20
-224.5210068883142
 10
24.64845241354275
 20
-224.5210068883142
 10
24.86842176027595
 20
-224.3218803692668
 10
24.86842176027595
 20
-224.0342148962484
 10
24.86842176027595
 20
-223.7675645056901
 10
24.71614853982791
 20
-223.615291285242
 10
24.33115911935124
 20
-223.4674966889248
 10
23.86572671929398
 20
-223.3024766151813
 10
23.57806124627562
 20
-223.0613199312139
 10
23.57806124627562
 20
-222.6592772880852
 10
23.57806124627562
 20
-222.214859970488
 10
23.94599744410031
 20
-221.884819823001
 10
24.50031330767701
 20
-221.884819823001
 10
24.79228515005193
 20
-221.884819823001
 10
25.00381401284627
 20
-221.9526882040605
 10
25.13076578147773
 20
-222.0246906997022
 10
25.13076578147773
 20
-222.0246906997022
 10
25.02913546466286
 20
-222.325103026016
 10
25.02913546466286
 20
-222.325103026016
 10
24.93611788656111
 20
-222.2741156128343
 10
24.74577636100106
 20
-222.1897107734456
 10
24.48756645438158
 20
-222.1897107734456
 10
24.09844291932261
 20
-222.1897107734456
 10
23.95030381345687
 20
-222.4222547187
 10
23.95030381345687
 20
-222.6169026136166
 10
23.95030381345687
 20
-222.883553004175
 10
24.1237643711392
 20
-223.0144666326144
 10
24.51719427555473
 20
-223.167084362611
 10
24.99950764348971
 20
-223.3531195188145
 10
25.24497069681376
 20
-223.5856634640689
 10
25.24497069681376
 20
-224.0045870750752
 10
25.24497069681376
 20
-224.4448702780902
 10
24.91923691868339
 20
-224.8255533292103
 10
24.24640977041409
 20
-224.8255533292103
 10
23.97149115069116
 20
-224.8255533292103
 10
23.67107882437737
 20
-224.7449380948555
 10
23.51880560392933
 20
-224.6436522875891
 10
23.51880560392933
 20
-224.6436522875891
 10
23.61182318203107
 20
-224.3346272225622
 10
23.61182318203107
 20
-224.3346272225622
 97
        0
 75
     2
 76
     1
 98
        0
  0
SPLINE
  5
92
330
8C
100
AcDbEntity
  8
cutout-objects
370
     0
100
AcDbSpline
210
0.0
220
0.0
230
1.0
 70
    11
 71
     3
 72
    32
 73
    28
 74
     0
 42
0.0000000001
 43
0.0000000001
 40
0.0
 40
0.0
 40
0.0
 40
0.0
 40
1.0
 40
1.0
 40
1.0
 40
2.0
 40
2.0
 40
2.0
 40
3.0
 40
3.0
 40
3.0
 40
4.0
 40
4.0
 40
4.0
 40
5.0
 40
5.0
 40
5.0
 40
6.0
 40
6.0
 40
6.0
 40
7.0
 40
7.0
 40
7.0
 40
8.0
 40
8.0
 40
8.0
 40
9.0
 40
9.0
 40
9.0
 40
9.0
 10
25.96964653213606
 20
-223.8268201480363
 30
0.0
 10
25.97808701607492
 20
-224.3304931079799
 30
0.0
 10
26.299686679623
 20
-224.5378878561919
 30
0.0
 10
26.67192924680424
 20
-224.5378878561919
 30
0.0
 10
26.93840738258832
 20
-224.5378878561919
 30
0.0
 10
27.09929334174948
 20
-224.4913790671411
 30
0.0
 10
27.2388197089021
 20
-224.4321234247948
 30
0.0
 10
27.2388197089021
 20
-224.4321234247948
 30
0.0
 10
27.30238172060496
 20
-224.6984293058046
 30
0.0
 10
27.30238172060496
 20
-224.6984293058046
 30
0.0
 10
27.17112358261694
 20
-224.7576849481509
 30
0.0
 10
26.94702012130144
 20
-224.8255533292103
 30
0.0
 10
26.6211140883968
 20
-224.8255533292103
 30
0.0
 10
25.99066161459609
 20
-224.8255533292103
 30
0.0
 10
25.61411267805828
 20
-224.4107638327862
 30
0.0
 10
25.61411267805828
 20
-223.7930582122809
 30
0.0
 10
25.61411267805828
 20
-223.1753525917756
 30
0.0
 10
25.97808701607492
 20
-222.6889051092583
 30
0.0
 10
26.57460529934593
 20
-222.6889051092583
 30
0.0
 10
27.24312607825867
 20
-222.6889051092583
 30
0.0
 10
27.42089300529756
 20
-223.2769829085905
 30
0.0
 10
27.42089300529756
 20
-223.6535318451283
 30
0.0
 10
27.42089300529756
 20
-223.7296684553523
 30
0.0
 10
27.41228026658443
 20
-223.7889240976986
 30
0.0
 10
27.40814615200213
 20
-223.8268201480363
 30
0.0
 10
27.40814615200213
 20
-223.8268201480363
 30
0.0
 10
25.96964653213606
 20
-223.8268201480363
 30
0.0
 10
25.96964653213606
 20
-223.8268201480363
 30
0.0
  0
SPLINE
  5
93
330
8C
100
AcDbEntity
  8
cutout-objects
370
     0
100
AcDbSpline
210
0.0
220
0.0
230
1.0
 70
    11
 71
     3
 72
    14
 73
    10
 74
     0
 42
0.0000000001
 43
0.0000000001
 40
0.0
 40
0.0
 40
0.0
 40
0.0
 40
1.0
 40
1.0
 40
1.0
 40
2.0
 40
2.0
 40
2.0
 40
3.0
 40
3.0
 40
3.0
 40
3.0
 10
27.06122503663747
 20
-223.5605142670265
 30
0.0
 10
27.06535915121977
 20
-223.3234916976414
 30
0.0
 10
26.96390108917916
 20
-222.9552109902681
 30
0.0
 10
26.54497747817279
 20
-222.9552109902681
 30
0.0
 10
26.16842854163498
 20
-222.9552109902681
 30
0.0
 10
26.00340846789151
 20
-223.3024766151813
 30
0.0
 10
25.97378064671836
 20
-223.5605142670265
 30
0.0
 10
25.97378064671836
 20
-223.5605142670265
 30
0.0
 10
27.06122503663747
 20
-223.5605142670265
 30
0.0
 10
27.06122503663747
 20
-223.5605142670265
 30
0.0
  0
HATCH
  5
94
330
8C
100
AcDbEntity
  8
cutout-objects
 62
     7
100
AcDbHatch
 10
0.0
 20
0.0
 30
0.0
210
0.0
220
0.0
230
1.0
  2
SOLID
 70
     1
 71
     0
 91
        2
 92
        1
 93
        1
 72
     4
 94
        3
 73
     0
 74
     1
 95
       32
 96
       28
 40
0.0
 40
0.0
 40
0.0
 40
0.0
 40
1.0
 40
1.0
 40
1.0
 40
2.0
 40
2.0
 40
2.0
 40
3.0
 40
3.0
 40
3.0
 40
4.0
 40
4.0
 40
4.0
 40
5.0
 40
5.0
 40
5.0
 40
6.0
 40
6.0
 40
6.0
 40
7.0
 40
7.0
 40
7.0
 40
8.0
 40
8.0
 40
8.0
 40
9.0
 40
9.0
 40
9.0
 40
9.0
 10
25.96964653213606
 20
-223.8268201480363
 10
25.97808701607492
 20
-224.3304931079799
 10
26.299686679623
 20
-224.5378878561919
 10
26.67192924680424
 20
-224.5378878561919
 10
26.93840738258832
 20
-224.5378878561919
 10
27.09929334174948
 20
-224.4913790671411
 10
27.2388197089021
 20
-224.4321234247948
 10
27.2388197089021
 20
-224.4321234247948
 10
27.30238172060496
 20
-224.6984293058046
 10
27.30238172060496
 20
-224.6984293058046
 10
27.17112358261694
 20
-224.7576849481509
 10
26.94702012130144
 20
-224.8255533292103
 10
26.6211140883968
 20
-224.8255533292103
 10
25.99066161459609
 20
-224.8255533292103
 10
25.61411267805828
 20
-224.4107638327862
 10
25.61411267805828
 20
-223.7930582122809
 10
25.61411267805828
 20
-223.1753525917756
 10
25.97808701607492
 20
-222.6889051092583
 10
26.57460529934593
 20
-222.6889051092583
 10
27.24312607825867
 20
-222.6889051092583
 10
27.42089300529756
 20
-223.2769829085905
 10
27.42089300529756
 20
-223.6535318451283
 10
27.42089300529756
 20
-223.7296684553523
 10
27.41228026658443
 20
-223.7889240976986
 10
27.40814615200213
 20
-223.8268201480363
 10
27.40814615200213
 20
-223.8268201480363
 10
25.96964653213606
 20
-223.8268201480363
 10
25.96964653213606
 20
-223.8268201480363
 97
        0
 92
        1
 93
        1
 72
     4
 94
        3
 73
     0
 74
     1
 95
       14
 96
       10
 40
0.0
 40
0.0
 40
0.0
 40
0.0
 40
1.0
 40
1.0
 40
1.0
 40
2.0
 40
2.0
 40
2.0
 40
3.0
 40
3.0
 40
3.0
 40
3.0
 10
27.06122503663747
 20
-223.5605142670265
 10
27.06535915121977
 20
-223.3234916976414
 10
26.96390108917916
 20
-222.9552109902681
 10
26.54497747817279
 20
-222.9552109902681
 10
26.16842854163498
 20
-222.9552109902681
 10
26.00340846789151
 20
-223.3024766151813
 10
25.97378064671836
 20
-223.5605142670265
 10
25.97378064671836
 20
-223.5605142670265
 10
27.06122503663747
 20
-223.5605142670265
 10
27.06122503663747
 20
-223.5605142670265
 97
        0
 75
     2
 76
     1
 98
        0
  0
SPLINE
  5
95
330
8C
100
AcDbEntity
  8
cutout-objects
370
     0
100
AcDbSpline
210
0.0
220
0.0
230
1.0
 70
    11
 71
     3
 72
    44
 73
    40
 74
     0
 42
0.0000000001
 43
0.0000000001
 40
0.0
 40
0.0
 40
0.0
 40
0.0
 40
1.0
 40
1.0
 40
1.0
 40
2.0
 40
2.0
 40
2.0
 40
3.0
 40
3.0
 40
3.0
 40
4.0
 40
4.0
 40
4.0
 40
5.0
 40
5.0
 40
5.0
 40
6.0
 40
6.0
 40
6.0
 40
7.0
 40
7.0
 40
7.0
 40
8.0
 40
8.0
 40
8.0
 40
9.0
 40
9.0
 40
9.0
 40
10.0
 40
10.0
 40
10.0
 40
11.0
 40
11.0
 40
11.0
 40
12.0
 40
12.0
 40
12.0
 40
13.0
 40
13.0
 40
13.0
 40
13.0
 10
27.88305256464382
 20
-223.3741346012745
 30
0.0
 10
27.88305256464382
 20
-223.132977917307
 30
0.0
 10
27.87891845006152
 20
-222.9259276786435
 30
0.0
 10
27.8661715967661
 20
-222.7354138983092
 30
0.0
 10
27.8661715967661
 20
-222.7354138983092
 30
0.0
 10
28.19190537489647
 20
-222.7354138983092
 30
0.0
 10
28.19190537489647
 20
-222.7354138983092
 30
0.0
 10
28.19190537489647
 20
-222.7354138983092
 30
0.0
 10
28.20465222819189
 20
-223.1374565414379
 30
0.0
 10
28.20465222819189
 20
-223.1374565414379
 30
0.0
 10
28.20465222819189
 20
-223.1374565414379
 30
0.0
 10
28.22153319606962
 20
-223.1374565414379
 30
0.0
 10
28.22153319606962
 20
-223.1374565414379
 30
0.0
 10
28.31455077417136
 20
-222.8621934121664
 30
0.0
 10
28.53882649026113
 20
-222.6889051092583
 30
0.0
 10
28.78842365816748
 20
-222.6889051092583
 30
0.0
 10
28.83079833263605
 20
-222.6889051092583
 30
0.0
 10
28.8604261538092
 20
-222.6930392238406
 30
0.0
 10
28.89418808956465
 20
-222.7016519625538
 30
0.0
 10
28.89418808956465
 20
-222.7016519625538
 30
0.0
 10
28.89418808956465
 20
-223.0527071925007
 30
0.0
 10
28.89418808956465
 20
-223.0527071925007
 30
0.0
 10
28.85611978445264
 20
-223.0440944537876
 30
0.0
 10
28.81805147934063
 20
-223.0399603392053
 30
0.0
 10
28.76740857570746
 20
-223.0399603392053
 30
0.0
 10
28.50506455450568
 20
-223.0399603392053
 30
0.0
 10
28.31885714352793
 20
-223.2387423487042
 30
0.0
 10
28.26804198512049
 20
-223.518139592558
 30
0.0
 10
28.25960150118163
 20
-223.5687824961911
 30
0.0
 10
28.25116101724277
 20
-223.6280381385374
 30
0.0
 10
28.25116101724277
 20
-223.691427895466
 30
0.0
 10
28.25116101724277
 20
-223.691427895466
 30
0.0
 10
28.25116101724277
 20
-224.7831786547417
 30
0.0
 10
28.25116101724277
 20
-224.7831786547417
 30
0.0
 10
28.25116101724277
 20
-224.7831786547417
 30
0.0
 10
27.88305256464382
 20
-224.7831786547417
 30
0.0
 10
27.88305256464382
 20
-224.7831786547417
 30
0.0
 10
27.88305256464382
 20
-224.7831786547417
 30
0.0
 10
27.88305256464382
 20
-223.3741346012745
 30
0.0
 10
27.88305256464382
 20
-223.3741346012745
 30
0.0
  0
HATCH
  5
96
330
8C
100
AcDbEntity
  8
cutout-objects
 62
     7
100
AcDbHatch
 10
0.0
 20
0.0
 30
0.0
210
0.0
220
0.0
230
1.0
  2
SOLID
 70
     1
 71
     0
 91
        1
 92
        1
 93
        1
 72
     4
 94
        3
 73
     0
 74
     1
 95
       44
 96
       40
 40
0.0
 40
0.0
 40
0.0
 40
0.0
 40
1.0
 40
1.0
 40
1.0
 40
2.0
 40
2.0
 40
2.0
 40
3.0
 40
3.0
 40
3.0
 40
4.0
 40
4.0
 40
4.0
 40
5.0
 40
5.0
 40
5.0
 40
6.0
 40
6.0
 40
6.0
 40
7.0
 40
7.0
 40
7.0
 40
8.0
 40
8.0
 40
8.0
 40
9.0
 40
9.0
 40
9.0
 40
10.0
 40
10.0
 40
10.0
 40
11.0
 40
11.0
 40
11.0
 40
12.0
 40
12.0
 40
12.0
 40
13.0
 40
13.0
 40
13.0
 40
13.0
 10
27.88305256464382
 20
-223.3741346012745
 10
27.88305256464382
 20
-223.132977917307
 10
27.87891845006152
 20
-222.9259276786435
 10
27.8661715967661
 20
-222.7354138983092
 10
27.8661715967661
 20
-222.7354138983092
 10
28.19190537489647
 20
-222.7354138983092
 10
28.19190537489647
 20
-222.7354138983092
 10
28.19190537489647
 20
-222.7354138983092
 10
28.20465222819189
 20
-223.1374565414379
 10
28.20465222819189
 20
-223.1374565414379
 10
28.20465222819189
 20
-223.1374565414379
 10
28.22153319606962
 20
-223.1374565414379
 10
28.22153319606962
 20
-223.1374565414379
 10
28.31455077417136
 20
-222.8621934121664
 10
28.53882649026113
 20
-222.6889051092583
 10
28.78842365816748
 20
-222.6889051092583
 10
28.83079833263605
 20
-222.6889051092583
 10
28.8604261538092
 20
-222.6930392238406
 10
28.89418808956465
 20
-222.7016519625538
 10
28.89418808956465
 20
-222.7016519625538
 10
28.89418808956465
 20
-223.0527071925007
 10
28.89418808956465
 20
-223.0527071925007
 10
28.85611978445264
 20
-223.0440944537876
 10
28.81805147934063
 20
-223.0399603392053
 10
28.76740857570746
 20
-223.0399603392053
 10
28.50506455450568
 20
-223.0399603392053
 10
28.31885714352793
 20
-223.2387423487042
 10
28.26804198512049
 20
-223.518139592558
 10
28.25960150118163
 20
-223.5687824961911
 10
28.25116101724277
 20
-223.6280381385374
 10
28.25116101724277
 20
-223.691427895466
 10
28.25116101724277
 20
-223.691427895466
 10
28.25116101724277
 20
-224.7831786547417
 10
28.25116101724277
 20
-224.7831786547417
 10
28.25116101724277
 20
-224.7831786547417
 10
27.88305256464382
 20
-224.7831786547417
 10
27.88305256464382
 20
-224.7831786547417
 10
27.88305256464382
 20
-224.7831786547417
 10
27.88305256464382
 20
-223.3741346012745
 10
27.88305256464382
 20
-223.3741346012745
 97
        0
 75
     2
 76
     1
 98
        0
  0
SPLINE
  5
97
330
8C
100
AcDbEntity
  8
cutout-objects
370
     0
100
AcDbSpline
210
0.0
220
0.0
230
1.0
 70
    11
 71
     3
 72
    35
 73
    31
 74
     0
 42
0.0000000001
 43
0.0000000001
 40
0.0
 40
0.0
 40
0.0
 40
0.0
 40
1.0
 40
1.0
 40
1.0
 40
2.0
 40
2.0
 40
2.0
 40
3.0
 40
3.0
 40
3.0
 40
4.0
 40
4.0
 40
4.0
 40
5.0
 40
5.0
 40
5.0
 40
6.0
 40
6.0
 40
6.0
 40
7.0
 40
7.0
 40
7.0
 40
8.0
 40
8.0
 40
8.0
 40
9.0
 40
9.0
 40
9.0
 40
10.0
 40
10.0
 40
10.0
 40
10.0
 10
29.51706135329782
 20
-222.7354138983092
 30
0.0
 10
29.51706135329782
 20
-222.7354138983092
 30
0.0
 10
29.91910399642648
 20
-223.8860757903826
 30
0.0
 10
29.91910399642648
 20
-223.8860757903826
 30
0.0
 10
29.98680012271164
 20
-224.0724554561347
 30
0.0
 10
30.04174939570137
 20
-224.2416096444605
 30
0.0
 10
30.08412407016994
 20
-224.4107638327862
 30
0.0
 10
30.08412407016994
 20
-224.4107638327862
 30
0.0
 10
30.0966986686911
 20
-224.4107638327862
 30
0.0
 10
30.0966986686911
 20
-224.4107638327862
 30
0.0
 10
30.14320745774198
 20
-224.2416096444605
 30
0.0
 10
30.20246310008827
 20
-224.0724554561347
 30
0.0
 10
30.27015922637343
 20
-223.8860757903826
 30
0.0
 10
30.27015922637343
 20
-223.8860757903826
 30
0.0
 10
30.66789550014553
 20
-222.7354138983092
 30
0.0
 10
30.66789550014553
 20
-222.7354138983092
 30
0.0
 10
30.66789550014553
 20
-222.7354138983092
 30
0.0
 10
31.05719128997876
 20
-222.7354138983092
 30
0.0
 10
31.05719128997876
 20
-222.7354138983092
 30
0.0
 10
31.05719128997876
 20
-222.7354138983092
 30
0.0
 10
30.25327825849571
 20
-224.7831786547417
 30
0.0
 10
30.25327825849571
 20
-224.7831786547417
 30
0.0
 10
30.25327825849571
 20
-224.7831786547417
 30
0.0
 10
29.89791665919219
 20
-224.7831786547417
 30
0.0
 10
29.89791665919219
 20
-224.7831786547417
 30
0.0
 10
29.89791665919219
 20
-224.7831786547417
 30
0.0
 10
29.11932507952573
 20
-222.7354138983092
 30
0.0
 10
29.11932507952573
 20
-222.7354138983092
 30
0.0
 10
29.11932507952573
 20
-222.7354138983092
 30
0.0
 10
29.51706135329782
 20
-222.7354138983092
 30
0.0
 10
29.51706135329782
 20
-222.7354138983092
 30
0.0
  0
HATCH
  5
98
330
8C
100
AcDbEntity
  8
cutout-objects
 62
     7
100
AcDbHatch
 10
0.0
 20
0.0
 30
0.0
210
0.0
220
0.0
230
1.0
  2
SOLID
 70
     1
 71
     0
 91
        1
 92
        1
 93
        1
 72
     4
 94
        3
 73
     0
 74
     1
 95
       35
 96
       31
 40
0.0
 40
0.0
 40
0.0
 40
0.0
 40
1.0
 40
1.0
 40
1.0
 40
2.0
 40
2.0
 40
2.0
 40
3.0
 40
3.0
 40
3.0
 40
4.0
 40
4.0
 40
4.0
 40
5.0
 40
5.0
 40
5.0
 40
6.0
 40
6.0
 40
6.0
 40
7.0
 40
7.0
 40
7.0
 40
8.0
 40
8.0
 40
8.0
 40
9.0
 40
9.0
 40
9.0
 40
10.0
 40
10.0
 40
10.0
 40
10.0
 10
29.51706135329782
 20
-222.7354138983092
 10
29.51706135329782
 20
-222.7354138983092
 10
29.91910399642648
 20
-223.8860757903826
 10
29.91910399642648
 20
-223.8860757903826
 10
29.98680012271164
 20
-224.0724554561347
 10
30.04174939570137
 20
-224.2416096444605
 10
30.08412407016994
 20
-224.4107638327862
 10
30.08412407016994
 20
-224.4107638327862
 10
30.0966986686911
 20
-224.4107638327862
 10
30.0966986686911
 20
-224.4107638327862
 10
30.14320745774198
 20
-224.2416096444605
 10
30.20246310008827
 20
-224.0724554561347
 10
30.27015922637343
 20
-223.8860757903826
 10
30.27015922637343
 20
-223.8860757903826
 10
30.66789550014553
 20
-222.7354138983092
 10
30.66789550014553
 20
-222.7354138983092
 10
30.66789550014553
 20
-222.7354138983092
 10
31.05719128997876
 20
-222.7354138983092
 10
31.05719128997876
 20
-222.7354138983092
 10
31.05719128997876
 20
-222.7354138983092
 10
30.25327825849571
 20
-224.7831786547417
 10
30.25327825849571
 20
-224.7831786547417
 10
30.25327825849571
 20
-224.7831786547417
 10
29.89791665919219
 20
-224.7831786547417
 10
29.89791665919219
 20
-224.7831786547417
 10
29.89791665919219
 20
-224.7831786547417
 10
29.11932507952573
 20
-222.7354138983092
 10
29.11932507952573
 20
-222.7354138983092
 10
29.11932507952573
 20
-222.7354138983092
 10
29.51706135329782
 20
-222.7354138983092
 10
29.51706135329782
 20
-222.7354138983092
 97
        0
 75
     2
 76
     1
 98
        0
  0
SPLINE
  5
99
330
8C
100
AcDbEntity
  8
cutout-objects
370
     0
100
AcDbSpline
210
0.0
220
0.0
230
1.0
 70
    11
 71
     3
 72
    17
 73
    13
 74
     0
 42
0.0000000001
 43
0.0000000001
 40
0.0
 40
0.0
 40
0.0
 40
0.0
 40
1.0
 40
1.0
 40
1.0
 40
2.0
 40
2.0
 40
2.0
 40
3.0
 40
3.0
 40
3.0
 40
4.0
 40
4.0
 40
4.0
 40
4.0
 10
33.22019449039287
 20
-223.7424153086477
 30
0.0
 10
33.22019449039287
 20
-224.4996472963057
 30
0.0
 10
32.69567870276358
 20
-224.8296874437926
 30
0.0
 10
32.20061848153318
 20
-224.8296874437926
 30
0.0
 10
31.64630261795648
 20
-224.8296874437926
 30
0.0
 10
31.21893852301124
 20
-224.4235106860816
 30
0.0
 10
31.21893852301124
 20
-223.7761772444032
 30
0.0
 10
31.21893852301124
 20
-223.090947752387
 30
0.0
 10
31.66748995519077
 20
-222.6889051092583
 30
0.0
 10
32.23438041728863
 20
-222.6889051092583
 30
0.0
 10
32.82263047139504
 20
-222.6889051092583
 30
0.0
 10
33.22019449039287
 20
-223.1160969494293
 30
0.0
 10
33.22019449039287
 20
-223.7424153086477
 30
0.0
  0
SPLINE
  5
9A
330
8C
100
AcDbEntity
  8
cutout-objects
370
     0
100
AcDbSpline
210
0.0
220
0.0
230
1.0
 70
    11
 71
     3
 72
    17
 73
    13
 74
     0
 42
0.0000000001
 43
0.0000000001
 40
0.0
 40
0.0
 40
0.0
 40
0.0
 40
1.0
 40
1.0
 40
1.0
 40
2.0
 40
2.0
 40
2.0
 40
3.0
 40
3.0
 40
3.0
 40
4.0
 40
4.0
 40
4.0
 40
4.0
 10
31.59548745954904
 20
-223.7634303911078
 30
0.0
 10
31.59548745954904
 20
-224.2119818232873
 30
0.0
 10
31.85369736616852
 20
-224.5506347094874
 30
0.0
 10
32.2174994494109
 20
-224.5506347094874
 30
0.0
 10
32.57286104871442
 20
-224.5506347094874
 30
0.0
 10
32.83951143927276
 20
-224.2161159378696
 30
0.0
 10
32.83951143927276
 20
-223.7551621619432
 30
0.0
 10
32.83951143927276
 20
-223.4082410465785
 30
0.0
 10
32.66605088159044
 20
-222.9679578435636
 30
0.0
 10
32.22593993334976
 20
-222.9679578435636
 30
0.0
 10
31.78600123988336
 20
-222.9679578435636
 30
0.0
 10
31.59548745954904
 20
-223.3741346012745
 30
0.0
 10
31.59548745954904
 20
-223.7634303911078
 30
0.0
  0
HATCH
  5
9B
330
8C
100
AcDbEntity
  8
cutout-objects
 62
     7
100
AcDbHatch
 10
0.0
 20
0.0
 30
0.0
210
0.0
220
0.0
230
1.0
  2
SOLID
 70
     1
 71
     0
 91
        2
 92
        1
 93
        1
 72
     4
 94
        3
 73
     0
 74
     1
 95
       17
 96
       13
 40
0.0
 40
0.0
 40
0.0
 40
0.0
 40
1.0
 40
1.0
 40
1.0
 40
2.0
 40
2.0
 40
2.0
 40
3.0
 40
3.0
 40
3.0
 40
4.0
 40
4.0
 40
4.0
 40
4.0
 10
33.22019449039287
 20
-223.7424153086477
 10
33.22019449039287
 20
-224.4996472963057
 10
32.69567870276358
 20
-224.8296874437926
 10
32.20061848153318
 20
-224.8296874437926
 10
31.64630261795648
 20
-224.8296874437926
 10
31.21893852301124
 20
-224.4235106860816
 10
31.21893852301124
 20
-223.7761772444032
 10
31.21893852301124
 20
-223.090947752387
 10
31.66748995519077
 20
-222.6889051092583
 10
32.23438041728863
 20
-222.6889051092583
 10
32.82263047139504
 20
-222.6889051092583
 10
33.22019449039287
 20
-223.1160969494293
 10
33.22019449039287
 20
-223.7424153086477
 97
        0
 92
        1
 93
        1
 72
     4
 94
        3
 73
     0
 74
     1
 95
       17
 96
       13
 40
0.0
 40
0.0
 40
0.0
 40
0.0
 40
1.0
 40
1.0
 40
1.0
 40
2.0
 40
2.0
 40
2.0
 40
3.0
 40
3.0
 40
3.0
 40
4.0
 40
4.0
 40
4.0
 40
4.0
 10
31.59548745954904
 20
-223.7634303911078
 10
31.59548745954904
 20
-224.2119818232873
 10
31.85369736616852
 20
-224.5506347094874
 10
32.2174994494109
 20
-224.5506347094874
 10
32.57286104871442
 20
-224.5506347094874
 10
32.83951143927276
 20
-224.2161159378696
 10
32.83951143927276
 20
-223.7551621619432
 10
32.83951143927276
 20
-223.4082410465785
 10
32.66605088159044
 20
-222.9679578435636
 10
32.22593993334976
 20
-222.9679578435636
 10
31.78600123988336
 20
-222.9679578435636
 10
31.59548745954904
 20
-223.3741346012745
 10
31.59548745954904
 20
-223.7634303911078
 97
        0
 75
     2
 76
     1
 98
        0
  0
ENDBLK
  5
8F
330
8C
100
AcDbEntity
  8
0
100
AcDbBlockEnd
  0
ENDSEC
  0
SECTION
  2
ENTITIES
  0
POLYLINE
  5
3C
330
1F
100
AcDbEntity
  8
Ebene 1
 62
     7
370
    35
100
AcDb2dPolyline
 66
     1
 10
0.0
 20
0.0
 30
0.0
  0
VERTEX
  5
3D
330
3C
100
AcDbEntity
  8
Ebene 1
 62
     7
370
    35
100
AcDbVertex
100
AcDb2dVertex
 10
166.0732394333081
 20
-84.09874265475656
 30
0.0
  0
VERTEX
  5
3E
330
3C
100
AcDbEntity
  8
Ebene 1
 62
     7
370
    35
100
AcDbVertex
100
AcDb2dVertex
 10
99.07336694571778
 20
-84.09874265475656
 30
0.0
  0
VERTEX
  5
3F
330
3C
100
AcDbEntity
  8
Ebene 1
 62
     7
370
    35
100
AcDbVertex
100
AcDb2dVertex
 10
99.07336694571778
 20
-70.81187064201926
 30
0.0
  0
VERTEX
  5
40
330
3C
100
AcDbEntity
  8
Ebene 1
 62
     7
370
    35
100
AcDbVertex
100
AcDb2dVertex
 10
166.0732394333081
 20
-70.81187064201926
 30
0.0
  0
VERTEX
  5
41
330
3C
100
AcDbEntity
  8
Ebene 1
 62
     7
370
    35
100
AcDbVertex
100
AcDb2dVertex
 10
166.0732394333081
 20
-84.09874265475656
 30
0.0
  0
SEQEND
  5
42
330
3C
100
AcDbEntity
  8
Ebene 1
370
    35
  0
SPLINE
  5
43
330
1F
100
AcDbEntity
  8
Ebene 1
 62
     7
370
    35
100
AcDbSpline
210
0.0
220
0.0
230
1.0
 70
    11
 71
     3
 72
    17
 73
    13
 74
     0
 42
0.0000000001
 43
0.0000000001
 40
0.0
 40
0.0
 40
0.0
 40
0.0
 40
1.0
 40
1.0
 40
1.0
 40
2.0
 40
2.0
 40
2.0
 40
3.0
 40
3.0
 40
3.0
 40
4.0
 40
4.0
 40
4.0
 40
4.0
 10
166.0728949237595
 20
-53.40225286208346
 30
0.0
 10
166.0728949237595
 20
-61.13425291440394
 30
0.0
 10
159.804888197896
 20
-67.40225964026749
 30
0.0
 10
152.0730604003498
 20
-67.40225964026749
 30
0.0
 10
144.3412326028036
 20
-67.40225964026749
 30
0.0
 10
138.07322587694
 20
-61.13425291440394
 30
0.0
 10
138.07322587694
 20
-53.40225286208346
 30
0.0
 10
138.07322587694
 20
-45.67042506453726
 30
0.0
 10
144.3412326028036
 20
-39.40224608389944
 30
0.0
 10
152.0730604003498
 20
-39.40224608389944
 30
0.0
 10
159.804888197896
 20
-39.40224608389944
 30
0.0
 10
166.0728949237595
 20
-45.67042506453726
 30
0.0
 10
166.0728949237595
 20
-53.40225286208346
 30
0.0
  0
POLYLINE
  5
44
330
1F
100
AcDbEntity
  8
Ebene 1
 62
     7
370
    35
100
AcDb2dPolyline
 66
     1
 10
0.0
 20
0.0
 30
0.0
  0
VERTEX
  5
45
330
44
100
AcDbEntity
  8
Ebene 1
 62
     7
370
    35
100
AcDbVertex
100
AcDb2dVertex
 10
114.072968178947
 20
-84.09874265475656
 30
0.0
  0
VERTEX
  5
46
330
44
100
AcDbEntity
  8
Ebene 1
 62
     7
370
    35
100
AcDbVertex
100
AcDb2dVertex
 10
99.07336694571778
 20
-84.09874265475656
 30
0.0
  0
VERTEX
  5
47
330
44
100
AcDbEntity
  8
Ebene 1
 62
     7
370
    35
100
AcDbVertex
100
AcDb2dVertex
 10
99.07336694571778
 20
-70.81187064201926
 30
0.0
  0
VERTEX
  5
48
330
44
100
AcDbEntity
  8
Ebene 1
 62
     7
370
    35
100
AcDbVertex
100
AcDb2dVertex
 10
114.072968178947
 20
-70.81187064201926
 30
0.0
  0
VERTEX
  5
49
330
44
100
AcDbEntity
  8
Ebene 1
 62
     7
370
    35
100
AcDbVertex
100
AcDb2dVertex
 10
114.072968178947
 20
-84.09874265475656
 30
0.0
  0
SEQEND
  5
4A
330
44
100
AcDbEntity
  8
Ebene 1
370
    35
  0
SPLINE
  5
4B
330
1F
100
AcDbEntity
  8
Ebene 1
 62
     7
370
    35
100
AcDbSpline
210
0.0
220
0.0
230
1.0
 70
    11
 71
     3
 72
    17
 73
    13
 74
     0
 42
0.0000000001
 43
0.0000000001
 40
0.0
 40
0.0
 40
0.0
 40
0.0
 40
1.0
 40
1.0
 40
1.0
 40
2.0
 40
2.0
 40
2.0
 40
3.0
 40
3.0
 40
3.0
 40
4.0
 40
4.0
 40
4.0
 40
4.0
 10
104.308878554652
 20
-53.40225286208346
 30
0.0
 10
104.308878554652
 20
-56.16366914828547
 30
0.0
 10
102.0702555083366
 20
-58.40229219460082
 30
0.0
 10
99.3088392221346
 20
-58.40229219460082
 30
0.0
 10
96.54742293593259
 20
-58.40229219460082
 30
0.0
 10
94.30879988961725
 20
-56.16366914828547
 30
0.0
 10
94.30879988961725
 20
-53.40225286208346
 30
0.0
 10
94.30879988961725
 20
-50.64083657588146
 30
0.0
 10
96.54742293593259
 20
-48.40221352956612
 30
0.0
 10
99.3088392221346
 20
-48.40221352956612
 30
0.0
 10
102.0702555083366
 20
-48.40221352956612
 30
0.0
 10
104.308878554652
 20
-50.64083657588146
 30
0.0
 10
104.308878554652
 20
-53.40225286208346
 30
0.0
  0
INSERT
  5
4E
330
1F
100
AcDbEntity
  8
cutout-objects
100
AcDbBlockReference
  2
block 2
 10
0.0
 20
0.0
 30
0.0
  0
SPLINE
  5
5D
330
1F
100
AcDbEntity
  8
cutout-objects
 62
     7
370
    35
100
AcDbSpline
210
0.0
220
0.0
230
1.0
 70
    11
 71
     3
 72
    17
 73
    13
 74
     0
 42
0.0000000001
 43
0.0000000001
 40
0.0
 40
0.0
 40
0.0
 40
0.0
 40
1.0
 40
1.0
 40
1.0
 40
2.0
 40
2.0
 40
2.0
 40
3.0
 40
3.0
 40
3.0
 40
4.0
 40
4.0
 40
4.0
 40
4.0
 10
164.7730603971748
 20
-53.40225286208346
 30
0.0
 10
164.7730603971748
 20
-60.41629501527787
 30
0.0
 10
159.0869302987699
 20
-66.10225285890847
 30
0.0
 10
152.0730604003498
 20
-66.10225285890847
 30
0.0
 10
145.0591905019297
 20
-66.10225285890847
 30
0.0
 10
139.3730604035248
 20
-60.41629501527787
 30
0.0
 10
139.3730604035248
 20
-53.40225286208346
 30
0.0
 10
139.3730604035248
 20
-46.38838296366333
 30
0.0
 10
145.0591905019297
 20
-40.70225286525847
 30
0.0
 10
152.0730604003498
 20
-40.70225286525847
 30
0.0
 10
159.0869302987699
 20
-40.70225286525847
 30
0.0
 10
164.7730603971748
 20
-46.38838296366333
 30
0.0
 10
164.7730603971748
 20
-53.40225286208346
 30
0.0
  0
HATCH
  5
5E
330
1F
100
AcDbEntity
  8
cutout-objects
 62
     7
100
AcDbHatch
 10
0.0
 20
0.0
 30
0.0
210
0.0
220
0.0
230
1.0
  2
SOLID
 70
     1
 71
     0
 91
        1
 92
        1
 93
        1
 72
     4
 94
        3
 73
     0
 74
     1
 95
       17
 96
       13
 40
0.0
 40
0.0
 40
0.0
 40
0.0
 40
1.0
 40
1.0
 40
1.0
 40
2.0
 40
2.0
 40
2.0
 40
3.0
 40
3.0
 40
3.0
 40
4.0
 40
4.0
 40
4.0
 40
4.0
 10
164.7730603971748
 20
-53.40225286208346
 10
164.7730603971748
 20
-60.41629501527787
 10
159.0869302987699
 20
-66.10225285890847
 10
152.0730604003498
 20
-66.10225285890847
 10
145.0591905019297
 20
-66.10225285890847
 10
139.3730604035248
 20
-60.41629501527787
 10
139.3730604035248
 20
-53.40225286208346
 10
139.3730604035248
 20
-46.38838296366333
 10
145.0591905019297
 20
-40.70225286525847
 10
152.0730604003498
 20
-40.70225286525847
 10
159.0869302987699
 20
-40.70225286525847
 10
164.7730603971748
 20
-46.38838296366333
 10
164.7730603971748
 20
-53.40225286208346
 97
        0
 75
     2
 76
     1
 98
        0
  0
POLYLINE
  5
5F
330
1F
100
AcDbEntity
  8
cutout-objects
 62
     7
370
    35
100
AcDb2dPolyline
 66
     1
 10
0.0
 20
0.0
 30
0.0
  0
VERTEX
  5
60
330
5F
100
AcDbEntity
  8
cutout-objects
 62
     7
370
    35
100
AcDbVertex
100
AcDb2dVertex
 10
152.0730604003498
 20
-39.40224608389944
 30
0.0
  0
VERTEX
  5
61
330
5F
100
AcDbEntity
  8
cutout-objects
 62
     7
370
    35
100
AcDbVertex
100
AcDb2dVertex
 10
99.3088392221346
 20
-48.40221352956612
 30
0.0
  0
VERTEX
  5
62
330
5F
100
AcDbEntity
  8
cutout-objects
 62
     7
370
    35
100
AcDbVertex
100
AcDb2dVertex
 10
99.07336694571778
 20
-58.40229219460082
 30
0.0
  0
VERTEX
  5
63
330
5F
100
AcDbEntity
  8
cutout-objects
 62
     7
370
    35
100
AcDbVertex
100
AcDb2dVertex
 10
152.0730604003498
 20
-67.40225964026749
 30
0.0
  0
VERTEX
  5
64
330
5F
100
AcDbEntity
  8
cutout-objects
 62
     7
370
    35
100
AcDbVertex
100
AcDb2dVertex
 10
152.0730604003498
 20
-39.40224608389944
 30
0.0
  0
SEQEND
  5
65
330
5F
100
AcDbEntity
  8
cutout-objects
370
    35
  0
SPLINE
  5
66
330
1F
100
AcDbEntity
  8
cutout-objects
 62
     7
370
    35
100
AcDbSpline
210
0.0
220
0.0
230
1.0
 70
    11
 71
     3
 72
    32
 73
    28
 74
     0
 42
0.0000000001
 43
0.0000000001
 40
0.0
 40
0.0
 40
0.0
 40
0.0
 40
1.0
 40
1.0
 40
1.0
 40
2.0
 40
2.0
 40
2.0
 40
3.0
 40
3.0
 40
3.0
 40
4.0
 40
4.0
 40
4.0
 40
5.0
 40
5.0
 40
5.0
 40
6.0
 40
6.0
 40
6.0
 40
7.0
 40
7.0
 40
7.0
 40
8.0
 40
8.0
 40
8.0
 40
9.0
 40
9.0
 40
9.0
 40
9.0
 10
154.4553439284001
 20
-6.309347871686552
 30
0.0
 10
152.827191802071
 20
-6.309347871686552
 30
0.0
 10
151.2651855090587
 20
-6.590295408508676
 30
0.0
 10
149.8113552142833
 20
-7.10137532374549
 30
0.0
 10
149.8113552142833
 20
-7.10137532374549
 30
0.0
 10
101.6911227501849
 20
-15.30931531735323
 30
0.0
 10
101.6911227501849
 20
-15.30931531735323
 30
0.0
 10
98.92970646398285
 20
-15.30931531735323
 30
0.0
 10
96.69108341766751
 20
-17.54793836366857
 30
0.0
 10
96.69108341766751
 20
-20.30935464987058
 30
0.0
 10
96.69108341766751
 20
-22.99136148513758
 30
0.0
 10
98.80447724309403
 20
-25.17382947504335
 30
0.0
 10
101.4559949833166
 20
-25.29750840296382
 30
0.0
 10
101.4559949833166
 20
-25.29750840296382
 30
0.0
 10
101.455650473768
 20
-25.30939398238793
 30
0.0
 10
101.455650473768
 20
-25.30939398238793
 30
0.0
 10
101.455650473768
 20
-25.30939398238793
 30
0.0
 10
149.8323702967433
 20
-33.52422416696617
 30
0.0
 10
149.8323702967433
 20
-33.52422416696617
 30
0.0
 10
151.2799994196453
 20
-34.03082545807216
 30
0.0
 10
152.8347710121385
 20
-34.30936142805461
 30
0.0
 10
154.4553439284001
 20
-34.30936142805461
 30
0.0
 10
162.1871717259463
 20
-34.30936142805461
 30
0.0
 10
168.4551784518098
 20
-28.04135470219105
 30
0.0
 10
168.4551784518098
 20
-20.30935464987058
 30
0.0
 10
168.4551784518098
 20
-12.57752685232437
 30
0.0
 10
162.1871717259463
 20
-6.309347871686552
 30
0.0
 10
154.4553439284001
 20
-6.309347871686552
 30
0.0
  0
SPLINE
  5
67
330
1F
100
AcDbEntity
  8
cutout-objects
 62
     7
370
    35
100
AcDbSpline
210
0.0
220
0.0
230
1.0
 70
    11
 71
     3
 72
    35
 73
    31
 74
     0
 42
0.0000000001
 43
0.0000000001
 40
0.0
 40
0.0
 40
0.0
 40
0.0
 40
1.0
 40
1.0
 40
1.0
 40
2.0
 40
2.0
 40
2.0
 40
3.0
 40
3.0
 40
3.0
 40
4.0
 40
4.0
 40
4.0
 40
5.0
 40
5.0
 40
5.0
 40
6.0
 40
6.0
 40
6.0
 40
7.0
 40
7.0
 40
7.0
 40
8.0
 40
8.0
 40
8.0
 40
9.0
 40
9.0
 40
9.0
 40
10.0
 40
10.0
 40
10.0
 40
10.0
 10
103.8887491602257
 20
-23.09385307582376
 30
0.0
 10
103.2844794121129
 20
-23.57237683872496
 30
0.0
 10
102.5220797812271
 20
-23.85935329264627
 30
0.0
 10
101.6914672597334
 20
-23.85935329264627
 30
0.0
 10
99.7308634190777
 20
-23.85935329264627
 30
0.0
 10
98.1414686169577
 20
-22.26995849052626
 30
0.0
 10
98.1414686169577
 20
-20.30935464987058
 30
0.0
 10
98.1414686169577
 20
-18.34875080921489
 30
0.0
 10
99.7308634190777
 20
-16.75935600709488
 30
0.0
 10
101.6914672597334
 20
-16.75935600709488
 30
0.0
 10
102.4971028389591
 20
-16.75935600709488
 30
0.0
 10
103.2384873873848
 20
-17.02927923836421
 30
0.0
 10
103.8339721420103
 20
-17.48196478512604
 30
0.0
 10
103.8339721420103
 20
-17.48196478512604
 30
0.0
 10
104.1380018185836
 20
-17.55947943354416
 30
0.0
 10
104.1380018185836
 20
-17.55947943354416
 30
0.0
 10
104.1380018185836
 20
-17.55947943354416
 30
0.0
 10
115.8912895760619
 20
-18.50929225882754
 30
0.0
 10
115.8912895760619
 20
-18.50929225882754
 30
0.0
 10
116.885544133105
 20
-18.5094645136018
 30
0.0
 10
117.6913519671049
 20
-19.315444602376
 30
0.0
 10
117.6913519671049
 20
-20.30935464987058
 30
0.0
 10
117.6913519671049
 20
-21.30326469736516
 30
0.0
 10
116.885544133105
 20
-22.10924478613936
 30
0.0
 10
115.8912895760619
 20
-22.10941704091362
 30
0.0
 10
115.8912895760619
 20
-22.10941704091362
 30
0.0
 10
104.1380018185836
 20
-23.05940212097126
 30
0.0
 10
104.1380018185836
 20
-23.05940212097126
 30
0.0
 10
104.1380018185836
 20
-23.05940212097126
 30
0.0
 10
103.8887491602257
 20
-23.09385307582376
 30
0.0
 10
103.8887491602257
 20
-23.09385307582376
 30
0.0
  0
SPLINE
  5
68
330
1F
100
AcDbEntity
  8
cutout-objects
 62
     7
370
    35
100
AcDbSpline
210
0.0
220
0.0
230
1.0
 70
    11
 71
     3
 72
    17
 73
    13
 74
     0
 42
0.0000000001
 43
0.0000000001
 40
0.0
 40
0.0
 40
0.0
 40
0.0
 40
1.0
 40
1.0
 40
1.0
 40
2.0
 40
2.0
 40
2.0
 40
3.0
 40
3.0
 40
3.0
 40
4.0
 40
4.0
 40
4.0
 40
4.0
 10
154.4553439284001
 20
-33.00935464669558
 30
0.0
 10
147.4414740299799
 20
-33.00935464669558
 30
0.0
 10
141.7553439315751
 20
-27.32339680306498
 30
0.0
 10
141.7553439315751
 20
-20.30935464987058
 30
0.0
 10
141.7553439315751
 20
-13.29548475145043
 30
0.0
 10
147.4414740299799
 20
-7.609354653045578
 30
0.0
 10
154.4553439284001
 20
-7.609354653045578
 30
0.0
 10
161.4692138268202
 20
-7.609354653045578
 30
0.0
 10
167.1553439252251
 20
-13.29548475145043
 30
0.0
 10
167.1553439252251
 20
-20.30935464987058
 30
0.0
 10
167.1553439252251
 20
-27.32339680306498
 30
0.0
 10
161.4692138268202
 20
-33.00935464669558
 30
0.0
 10
154.4553439284001
 20
-33.00935464669558
 30
0.0
  0
POLYLINE
  5
69
330
1F
100
AcDbEntity
  8
cutout-objects
 62
     7
370
    35
100
AcDb2dPolyline
 66
     1
 10
0.0
 20
0.0
 30
0.0
  0
VERTEX
  5
6A
330
69
100
AcDbEntity
  8
cutout-objects
 62
     7
370
    35
100
AcDbVertex
100
AcDb2dVertex
 10
186.7000596321444
 20
-186.5398626920803
 30
0.0
  0
VERTEX
  5
6B
330
69
100
AcDbEntity
  8
cutout-objects
 62
     7
370
    35
100
AcDbVertex
100
AcDb2dVertex
 10
29.20011256865483
 20
-186.5398626920803
 30
0.0
  0
VERTEX
  5
6C
330
69
100
AcDbEntity
  8
cutout-objects
 62
     7
370
    35
100
AcDbVertex
100
AcDb2dVertex
 10
29.20011256865483
 20
-139.699999965075
 30
0.0
  0
VERTEX
  5
6D
330
69
100
AcDbEntity
  8
cutout-objects
 62
     7
370
    35
100
AcDbVertex
100
AcDb2dVertex
 10
186.7000596321444
 20
-139.699999965075
 30
0.0
  0
VERTEX
  5
6E
330
69
100
AcDbEntity
  8
cutout-objects
 62
     7
370
    35
100
AcDbVertex
100
AcDb2dVertex
 10
186.7000596321444
 20
-186.5398626920803
 30
0.0
  0
SEQEND
  5
6F
330
69
100
AcDbEntity
  8
cutout-objects
370
    35
  0
POLYLINE
  5
70
330
1F
100
AcDbEntity
  8
cutout-objects
 62
     7
370
    35
100
AcDb2dPolyline
 66
     1
 10
0.0
 20
0.0
 30
0.0
  0
VERTEX
  5
71
330
70
100
AcDbEntity
  8
cutout-objects
 62
     7
370
    35
100
AcDbVertex
100
AcDb2dVertex
 10
46.14119736259665
 20
-256.7633110252189
 30
0.0
  0
VERTEX
  5
72
330
70
100
AcDbEntity
  8
cutout-objects
 62
     7
370
    35
100
AcDbVertex
100
AcDb2dVertex
 10
23.34103867689043
 20
-256.7633110252189
 30
0.0
  0
VERTEX
  5
73
330
70
100
AcDbEntity
  8
cutout-objects
 62
     7
370
    35
100
AcDbVertex
100
AcDb2dVertex
 10
23.34103867689043
 20
-234.3133462955883
 30
0.0
  0
VERTEX
  5
74
330
70
100
AcDbEntity
  8
cutout-objects
 62
     7
370
    35
100
AcDbVertex
100
AcDb2dVertex
 10
46.14119736259665
 20
-234.3133462955883
 30
0.0
  0
VERTEX
  5
75
330
70
100
AcDbEntity
  8
cutout-objects
 62
     7
370
    35
100
AcDbVertex
100
AcDb2dVertex
 10
46.14119736259665
 20
-256.7633110252189
 30
0.0
  0
SEQEND
  5
76
330
70
100
AcDbEntity
  8
cutout-objects
370
    35
  0
POLYLINE
  5
77
330
1F
100
AcDbEntity
  8
cutout-objects
 62
     7
370
    35
100
AcDb2dPolyline
 66
     1
 10
0.0
 20
0.0
 30
0.0
  0
VERTEX
  5
78
330
77
100
AcDbEntity
  8
cutout-objects
 62
     7
370
    35
100
AcDbVertex
100
AcDb2dVertex
 10
51.24114446418624
 20
-252.4135334655425
 30
0.0
  0
VERTEX
  5
79
330
77
100
AcDbEntity
  8
cutout-objects
 62
     7
370
    35
100
AcDbVertex
100
AcDb2dVertex
 10
18.24109157530084
 20
-252.4135334655425
 30
0.0
  0
VERTEX
  5
7A
330
77
100
AcDbEntity
  8
cutout-objects
 62
     7
370
    35
100
AcDbVertex
100
AcDb2dVertex
 10
18.24109157530084
 20
-250.0636338350535
 30
0.0
  0
VERTEX
  5
7B
330
77
100
AcDbEntity
  8
cutout-objects
 62
     7
370
    35
100
AcDbVertex
100
AcDb2dVertex
 10
51.24114446418624
 20
-250.0636338350535
 30
0.0
  0
VERTEX
  5
7C
330
77
100
AcDbEntity
  8
cutout-objects
 62
     7
370
    35
100
AcDbVertex
100
AcDb2dVertex
 10
51.24114446418624
 20
-252.4135334655425
 30
0.0
  0
SEQEND
  5
7D
330
77
100
AcDbEntity
  8
cutout-objects
370
    35
  0
POLYLINE
  5
7E
330
1F
100
AcDbEntity
  8
cutout-objects
 62
     7
370
    35
100
AcDb2dPolyline
 66
     1
 10
0.0
 20
0.0
 30
0.0
  0
VERTEX
  5
7F
330
7E
100
AcDbEntity
  8
cutout-objects
 62
     7
370
    35
100
AcDbVertex
100
AcDb2dVertex
 10
37.84110106475848
 20
-261.0131808158231
 30
0.0
  0
VERTEX
  5
80
330
7E
100
AcDbEntity
  8
cutout-objects
 62
     7
370
    35
100
AcDbVertex
100
AcDb2dVertex
 10
23.34103867689043
 20
-261.0131808158231
 30
0.0
  0
VERTEX
  5
81
330
7E
100
AcDbEntity
  8
cutout-objects
 62
     7
370
    35
100
AcDbVertex
100
AcDb2dVertex
 10
23.34103867689043
 20
-234.3133462955883
 30
0.0
  0
VERTEX
  5
82
330
7E
100
AcDbEntity
  8
cutout-objects
 62
     7
370
    35
100
AcDbVertex
100
AcDb2dVertex
 10
37.84110106475848
 20
-234.3133462955883
 30
0.0
  0
VERTEX
  5
83
330
7E
100
AcDbEntity
  8
cutout-objects
 62
     7
370
    35
100
AcDbVertex
100
AcDb2dVertex
 10
37.84110106475848
 20
-261.0131808158231
 30
0.0
  0
SEQEND
  5
84
330
7E
100
AcDbEntity
  8
cutout-objects
370
    35
  0
POLYLINE
  5
85
330
1F
100
AcDbEntity
  8
cutout-objects
 62
     7
370
    35
100
AcDb2dPolyline
 66
     1
 10
0.0
 20
0.0
 30
0.0
  0
VERTEX
  5
86
330
85
100
AcDbEntity
  8
cutout-objects
 62
     7
370
    35
100
AcDbVertex
100
AcDb2dVertex
 10
31.59100883541822
 20
-261.0131808158231
 30
0.0
  0
VERTEX
  5
87
330
85
100
AcDbEntity
  8
cutout-objects
 62
     7
370
    35
100
AcDbVertex
100
AcDb2dVertex
 10
29.59113090623069
 20
-261.0131808158231
 30
0.0
  0
VERTEX
  5
88
330
85
100
AcDbEntity
  8
cutout-objects
 62
     7
370
    35
100
AcDbVertex
100
AcDb2dVertex
 10
29.59113090623069
 20
-234.3133462955883
 30
0.0
  0
VERTEX
  5
89
330
85
100
AcDbEntity
  8
cutout-objects
 62
     7
370
    35
100
AcDbVertex
100
AcDb2dVertex
 10
31.59100883541822
 20
-234.3133462955883
 30
0.0
  0
VERTEX
  5
8A
330
85
100
AcDbEntity
  8
cutout-objects
 62
     7
370
    35
100
AcDbVertex
100
AcDb2dVertex
 10
31.59100883541822
 20
-261.0131808158231
 30
0.0
  0
SEQEND
  5
8B
330
85
100
AcDbEntity
  8
cutout-objects
370
    35
  0
INSERT
  5
8D
330
1F
100
AcDbEntity
  8
cutout-objects
100
AcDbBlockReference
  2
block 3
 10
0.0
 20
0.0
 30
0.0
  0
POLYLINE
  5
9C
330
1F
100
AcDbEntity
  8
cutout-objects
 62
     7
370
    35
100
AcDb2dPolyline
 66
     1
 10
0.0
 20
0.0
 30
0.0
  0
VERTEX
  5
9D
330
9C
100
AcDbEntity
  8
cutout-objects
 62
     7
370
    35
100
AcDbVertex
100
AcDb2dVertex
 10
128.4000867734555
 20
-160.6503146299763
 30
0.0
  0
VERTEX
  5
9E
330
9C
100
AcDbEntity
  8
cutout-objects
 62
     7
370
    35
100
AcDbVertex
100
AcDb2dVertex
 10
123.2999674170917
 20
-160.6503146299763
 30
0.0
  0
VERTEX
  5
9F
330
9C
100
AcDbEntity
  8
cutout-objects
 62
     7
370
    35
100
AcDbVertex
100
AcDb2dVertex
 10
123.2999674170917
 20
-144.9000270905111
 30
0.0
  0
VERTEX
  5
A0
330
9C
100
AcDbEntity
  8
cutout-objects
 62
     7
370
    35
100
AcDbVertex
100
AcDb2dVertex
 10
115.0000433740278
 20
-144.9000270905111
 30
0.0
  0
VERTEX
  5
A1
330
9C
100
AcDbEntity
  8
cutout-objects
 62
     7
370
    35
100
AcDbVertex
100
AcDb2dVertex
 10
108.9501111923805
 20
-144.9000270905111
 30
0.0
  0
VERTEX
  5
A2
330
9C
100
AcDbEntity
  8
cutout-objects
 62
     7
370
    35
100
AcDbVertex
100
AcDb2dVertex
 10
108.7499511446875
 20
-144.9000270905111
 30
0.0
  0
VERTEX
  5
A3
330
9C
100
AcDbEntity
  8
cutout-objects
 62
     7
370
    35
100
AcDbVertex
100
AcDb2dVertex
 10
106.950233263193
 20
-144.9000270905111
 30
0.0
  0
VERTEX
  5
A4
330
9C
100
AcDbEntity
  8
cutout-objects
 62
     7
370
    35
100
AcDbVertex
100
AcDb2dVertex
 10
106.7500732155
 20
-144.9000270905111
 30
0.0
  0
VERTEX
  5
A5
330
9C
100
AcDbEntity
  8
cutout-objects
 62
     7
370
    35
100
AcDbVertex
100
AcDb2dVertex
 10
100.4999809861597
 20
-144.9000270905111
 30
0.0
  0
VERTEX
  5
A6
330
9C
100
AcDbEntity
  8
cutout-objects
 62
     7
370
    35
100
AcDbVertex
100
AcDb2dVertex
 10
100.4999809861597
 20
-160.6503146299763
 30
0.0
  0
VERTEX
  5
A7
330
9C
100
AcDbEntity
  8
cutout-objects
 62
     7
370
    35
100
AcDbVertex
100
AcDb2dVertex
 10
95.40003388457014
 20
-160.6503146299763
 30
0.0
  0
VERTEX
  5
A8
330
9C
100
AcDbEntity
  8
cutout-objects
 62
     7
370
    35
100
AcDbVertex
100
AcDb2dVertex
 10
95.40003388457014
 20
-163.0002142604652
 30
0.0
  0
VERTEX
  5
A9
330
9C
100
AcDbEntity
  8
cutout-objects
 62
     7
370
    35
100
AcDbVertex
100
AcDb2dVertex
 10
100.4999809861597
 20
-163.0002142604652
 30
0.0
  0
VERTEX
  5
AA
330
9C
100
AcDbEntity
  8
cutout-objects
 62
     7
370
    35
100
AcDbVertex
100
AcDb2dVertex
 10
100.4999809861597
 20
-167.3499918201417
 30
0.0
  0
VERTEX
  5
AB
330
9C
100
AcDbEntity
  8
cutout-objects
 62
     7
370
    35
100
AcDbVertex
100
AcDb2dVertex
 10
100.4999809861597
 20
-171.5998616107459
 30
0.0
  0
VERTEX
  5
AC
330
9C
100
AcDbEntity
  8
cutout-objects
 62
     7
370
    35
100
AcDbVertex
100
AcDb2dVertex
 10
106.7500732155
 20
-171.5998616107459
 30
0.0
  0
VERTEX
  5
AD
330
9C
100
AcDbEntity
  8
cutout-objects
 62
     7
370
    35
100
AcDbVertex
100
AcDb2dVertex
 10
106.950233263193
 20
-171.5998616107459
 30
0.0
  0
VERTEX
  5
AE
330
9C
100
AcDbEntity
  8
cutout-objects
 62
     7
370
    35
100
AcDbVertex
100
AcDb2dVertex
 10
108.7499511446875
 20
-171.5998616107459
 30
0.0
  0
VERTEX
  5
AF
330
9C
100
AcDbEntity
  8
cutout-objects
 62
     7
370
    35
100
AcDbVertex
100
AcDb2dVertex
 10
108.9501111923805
 20
-171.5998616107459
 30
0.0
  0
VERTEX
  5
B0
330
9C
100
AcDbEntity
  8
cutout-objects
 62
     7
370
    35
100
AcDbVertex
100
AcDb2dVertex
 10
115.0000433740278
 20
-171.5998616107459
 30
0.0
  0
VERTEX
  5
B1
330
9C
100
AcDbEntity
  8
cutout-objects
 62
     7
370
    35
100
AcDbVertex
100
AcDb2dVertex
 10
115.0000433740278
 20
-167.3499918201417
 30
0.0
  0
VERTEX
  5
B2
330
9C
100
AcDbEntity
  8
cutout-objects
 62
     7
370
    35
100
AcDbVertex
100
AcDb2dVertex
 10
123.2999674170917
 20
-167.3499918201417
 30
0.0
  0
VERTEX
  5
B3
330
9C
100
AcDbEntity
  8
cutout-objects
 62
     7
370
    35
100
AcDbVertex
100
AcDb2dVertex
 10
123.2999674170917
 20
-163.0002142604652
 30
0.0
  0
VERTEX
  5
B4
330
9C
100
AcDbEntity
  8
cutout-objects
 62
     7
370
    35
100
AcDbVertex
100
AcDb2dVertex
 10
128.4000867734555
 20
-163.0002142604652
 30
0.0
  0
VERTEX
  5
B5
330
9C
100
AcDbEntity
  8
cutout-objects
 62
     7
370
    35
100
AcDbVertex
100
AcDb2dVertex
 10
128.4000867734555
 20
-160.6503146299763
 30
0.0
  0
SEQEND
  5
B6
330
9C
100
AcDbEntity
  8
cutout-objects
370
    35
  0
ENDSEC
  0
SECTION
  2
OBJECTS
  0
DICTIONARY
  5
C
330
0
100
AcDbDictionary
281
     1
  3
ACAD_GROUP
350
D
  3
ACAD_LAYOUT
350
1A
  3
ACAD_MLINESTYLE
350
17
  3
ACAD_PLOTSETTINGS
350
19
  3
ACAD_PLOTSTYLENAME
350
E
  3
ACAD_TABLESTYLE
350
B7
  3
ACAD_VISUALSTYLE
350
2A
  0
DICTIONARY
  5
D
102
{ACAD_REACTORS
330
C
102
}
330
C
100
AcDbDictionary
281
     1
  0
DICTIONARY
  5
1A
102
{ACAD_REACTORS
330
C
102
}
330
C
100
AcDbDictionary
281
     1
  3
Layout1
350
1E
  3
Layout2
350
26
  3
Model
350
22
  0
DICTIONARY
  5
17
102
{ACAD_REACTORS
330
C
102
}
330
C
100
AcDbDictionary
281
     1
  3
Standard
350
18
  0
DICTIONARY
  5
19
102
{ACAD_REACTORS
330
C
102
}
330
C
100
AcDbDictionary
281
     1
  0
ACDBDICTIONARYWDFLT
  5
E
102
{ACAD_REACTORS
330
C
102
}
330
C
100
AcDbDictionary
281
     1
  3
Normal
350
F
100
AcDbDictionaryWithDefault
340
F
  0
DICTIONARY
  5
B7
102
{ACAD_REACTORS
330
C
102
}
330
C
100
AcDbDictionary
281
     1
  0
DICTIONARY
  5
2A
102
{ACAD_REACTORS
330
C
102
}
330
C
100
AcDbDictionary
281
     1
  3
2dWireframe
350
2F
  3
3D Hidden
350
31
  3
3dWireframe
350
30
  3
Basic
350
32
  3
Brighten
350
36
  3
ColorChange
350
3A
  3
Conceptual
350
34
  3
Dim
350
35
  3
Facepattern
350
39
  3
Flat
350
2B
  3
FlatWithEdges
350
2C
  3
Gouraud
350
2D
  3
GouraudWithEdges
350
2E
  3
Linepattern
350
38
  3
Realistic
350
33
  3
Thicken
350
37
  0
LAYOUT
  5
1E
102
{ACAD_REACTORS
330
1A
102
}
330
1A
100
AcDbPlotSettings
  1

  2
none_device
  4

  6

 40
0.0
 41
0.0
 42
0.0
 43
0.0
 44
0.0
 45
0.0
 46
0.0
 47
0.0
 48
0.0
 49
0.0
140
0.0
141
0.0
142
1.0
143
1.0
 70
   688
 72
     0
 73
     0
 74
     5
  7

 75
    16
 76
     0
 77
     2
 78
   300
147
1.0
148
0.0
149
0.0
100
AcDbLayout
  1
Layout1
 70
     1
 71
     1
 10
0.0
 20
0.0
 11
12.0
 21
9.0
 12
0.0
 22
0.0
 32
0.0
 14
1.000000000000000E+20
 24
1.000000000000000E+20
 34
1.000000000000000E+20
 15
-1.000000000000000E+20
 25
-1.000000000000000E+20
 35
-1.000000000000000E+20
146
0.0
 13
0.0
 23
0.0
 33
0.0
 16
1.0
 26
0.0
 36
0.0
 17
0.0
 27
1.0
 37
0.0
 76
     0
330
1B
  0
LAYOUT
  5
26
102
{ACAD_REACTORS
330
1A
102
}
330
1A
100
AcDbPlotSettings
  1

  2
none_device
  4

  6

 40
0.0
 41
0.0
 42
0.0
 43
0.0
 44
0.0
 45
0.0
 46
0.0
 47
0.0
 48
0.0
 49
0.0
140
0.0
141
0.0
142
1.0
143
1.0
 70
   688
 72
     0
 73
     0
 74
     5
  7

 75
    16
 76
     0
 77
     2
 78
   300
147
1.0
148
0.0
149
0.0
100
AcDbLayout
  1
Layout2
 70
     1
 71
     2
 10
0.0
 20
0.0
 11
0.0
 21
0.0
 12
0.0
 22
0.0
 32
0.0
 14
0.0
 24
0.0
 34
0.0
 15
0.0
 25
0.0
 35
0.0
146
0.0
 13
0.0
 23
0.0
 33
0.0
 16
1.0
 26
0.0
 36
0.0
 17
0.0
 27
1.0
 37
0.0
 76
     0
330
23
  0
LAYOUT
  5
22
102
{ACAD_REACTORS
330
1A
102
}
330
1A
100
AcDbPlotSettings
  1

  2
none_device
  4

  6

 40
0.0
 41
0.0
 42
0.0
 43
0.0
 44
0.0
 45
0.0
 46
0.0
 47
0.0
 48
0.0
 49
0.0
140
0.0
141
0.0
142
1.0
143
1.0
 70
  1712
 72
     0
 73
     0
 74
     0
  7

 75
     0
 76
     0
 77
     2
 78
   300
147
1.0
148
0.0
149
0.0
100
AcDbLayout
  1
Model
 70
     1
 71
     0
 10
0.0
 20
0.0
 11
12.0
 21
9.0
 12
0.0
 22
0.0
 32
0.0
 14
1.000000000000000E+20
 24
1.000000000000000E+20
 34
1.000000000000000E+20
 15
-1.000000000000000E+20
 25
-1.000000000000000E+20
 35
-1.000000000000000E+20
146
0.0
 13
0.0
 23
0.0
 33
0.0
 16
1.0
 26
0.0
 36
0.0
 17
0.0
 27
1.0
 37
0.0
 76
     0
330
1F
331
29
  0
MLINESTYLE
  5
18
102
{ACAD_REACTORS
330
17
102
}
330
17
100
AcDbMlineStyle
  2
Standard
 70
     0
  3

 62
   256
 51
90.0
 52
90.0
 71
     2
 49
0.5
 62
   256
  6
BYLAYER
 49
-0.5
 62
   256
  6
BYLAYER
  0
ACDBPLACEHOLDER
  5
F
102
{ACAD_REACTORS
330
E
102
}
330
E
  0
VISUALSTYLE
  5
2F
102
{ACAD_REACTORS
330
2A
102
}
330
2A
100
AcDbVisualStyle
  2
2dWireframe
 70
     4
 71
     0
 72
     2
 73
     0
 90
        0
 40
-0.6
 41
-30.0
 62
     5
 63
     7
421
 16777215
 74
     1
 91
        4
 64
     7
 65
   257
 75
     1
175
     1
 42
1.0
 92
        0
 66
   257
 43
1.0
 76
     1
 77
     6
 78
     2
 67
     7
 79
     5
170
     0
171
     0
290
     0
174
     0
 93
        1
 44
0.0
173
     0
291
     0
 45
0.0
1001
ACAD
1000
AcDbSavedByObjectVersion
1070
     0
  0
VISUALSTYLE
  5
31
102
{ACAD_REACTORS
330
2A
102
}
330
2A
100
AcDbVisualStyle
  2
3D Hidden
 70
     6
 71
     1
 72
     2
 73
     2
 90
        0
 40
-0.6
 41
-30.0
 62
     5
 63
     7
421
 16777215
 74
     2
 91
        2
 64
     7
 65
   257
 75
     2
175
     1
 42
40.0
 92
        0
 66
   257
 43
1.0
 76
     1
 77
     6
 78
     2
 67
     7
 79
     3
170
     0
171
     0
290
     0
174
     0
 93
        1
 44
0.0
173
     0
291
     0
 45
0.0
1001
ACAD
1000
AcDbSavedByObjectVersion
1070
     0
  0
VISUALSTYLE
  5
30
102
{ACAD_REACTORS
330
2A
102
}
330
2A
100
AcDbVisualStyle
  2
3dWireframe
 70
     5
 71
     0
 72
     2
 73
     0
 90
        0
 40
-0.6
 41
-30.0
 62
     5
 63
     7
421
 16777215
 74
     1
 91
        4
 64
     7
 65
   257
 75
     1
175
     1
 42
1.0
 92
        0
 66
   257
 43
1.0
 76
     1
 77
     6
 78
     2
 67
     7
 79
     5
170
     0
171
     0
290
     0
174
     0
 93
        1
 44
0.0
173
     0
291
     0
 45
0.0
1001
ACAD
1000
AcDbSavedByObjectVersion
1070
     0
  0
VISUALSTYLE
  5
32
102
{ACAD_REACTORS
330
2A
102
}
330
2A
100
AcDbVisualStyle
  2
Basic
 70
     7
 71
     1
 72
     0
 73
     1
 90
        0
 40
-0.6
 41
-30.0
 62
     5
 63
     7
421
 16777215
 74
     0
 91
        4
 64
     7
 65
   257
 75
     1
175
     1
 42
1.0
 92
        8
 66
     7
 43
1.0
 76
     1
 77
     6
 78
     2
 67
     7
 79
     5
170
     0
171
     0
290
     0
174
     0
 93
        1
 44
0.0
173
     0
291
     1
 45
0.0
1001
ACAD
1000
AcDbSavedByObjectVersion
1070
     0
  0
VISUALSTYLE
  5
36
102
{ACAD_REACTORS
330
2A
102
}
330
2A
100
AcDbVisualStyle
  2
Brighten
 70
    12
 71
     2
 72
     2
 73
     0
 90
        0
 40
-0.6
 41
-30.0
 62
     5
 63
     7
421
 16777215
 74
     1
 91
        4
 64
     7
 65
   257
 75
     1
175
     1
 42
1.0
 92
        8
 66
     7
 43
1.0
 76
     1
 77
     6
 78
     2
 67
     7
 79
     5
170
     0
171
     0
290
     0
174
     0
 93
        1
 44
50.0
173
     0
291
     1
 45
0.0
1001
ACAD
1000
AcDbSavedByObjectVersion
1070
     0
  0
VISUALSTYLE
  5
3A
102
{ACAD_REACTORS
330
2A
102
}
330
2A
100
AcDbVisualStyle
  2
ColorChange
 70
    16
 71
     2
 72
     2
 73
     3
 90
        0
 40
-0.6
 41
-30.0
 62
     5
 63
     8
421
  8421504
 74
     1
 91
        4
 64
     7
 65
   257
 75
     1
175
     1
 42
1.0
 92
        8
 66
     8
424
  8421504
 43
1.0
 76
     1
 77
     6
 78
     2
 67
     7
 79
     5
170
     0
171
     0
290
     0
174
     0
 93
        1
 44
0.0
173
     0
291
     1
 45
0.0
1001
ACAD
1000
AcDbSavedByObjectVersion
1070
     0
  0
VISUALSTYLE
  5
34
102
{ACAD_REACTORS
330
2A
102
}
330
2A
100
AcDbVisualStyle
  2
Conceptual
 70
     9
 71
     3
 72
     2
 73
     0
 90
        0
 40
-0.6
 41
-30.0
 62
     5
 63
     7
421
 16777215
 74
     2
 91
        2
 64
     7
 65
   257
 75
     1
175
     1
 42
40.0
 92
        8
 66
     7
 43
1.0
 76
     1
 77
     6
 78
     2
 67
     7
 79
     3
170
     0
171
     0
290
     0
174
     0
 93
        1
 44
0.0
173
     0
291
     0
 45
0.0
1001
ACAD
1000
AcDbSavedByObjectVersion
1070
     0
  0
VISUALSTYLE
  5
35
102
{ACAD_REACTORS
330
2A
102
}
330
2A
100
AcDbVisualStyle
  2
Dim
 70
    11
 71
     2
 72
     2
 73
     0
 90
        0
 40
-0.6
 41
-30.0
 62
     5
 63
     7
421
 16777215
 74
     1
 91
        4
 64
     7
 65
   257
 75
     1
175
     1
 42
1.0
 92
        8
 66
     7
 43
1.0
 76
     1
 77
     6
 78
     2
 67
     7
 79
     5
170
     0
171
     0
290
     0
174
     0
 93
        1
 44
-50.0
173
     0
291
     1
 45
0.0
1001
ACAD
1000
AcDbSavedByObjectVersion
1070
     0
  0
VISUALSTYLE
  5
39
102
{ACAD_REACTORS
330
2A
102
}
330
2A
100
AcDbVisualStyle
  2
Facepattern
 70
    15
 71
     2
 72
     2
 73
     0
 90
        0
 40
-0.6
 41
-30.0
 62
     5
 63
     7
421
 16777215
 74
     1
 91
        4
 64
     7
 65
   257
 75
     1
175
     1
 42
1.0
 92
        8
 66
     7
 43
1.0
 76
     1
 77
     6
 78
     2
 67
     7
 79
     5
170
     0
171
     0
290
     0
174
     0
 93
        1
 44
0.0
173
     0
291
     1
 45
0.0
1001
ACAD
1000
AcDbSavedByObjectVersion
1070
     0
  0
VISUALSTYLE
  5
2B
102
{ACAD_REACTORS
330
2A
102
}
330
2A
100
AcDbVisualStyle
  2
Flat
 70
     0
 71
     2
 72
     1
 73
     1
 90
        2
 40
-0.6
 41
30.0
 62
     5
 63
     7
421
 16777215
 74
     0
 91
        4
 64
     7
 65
   257
 75
     1
175
     1
 42
1.0
 92
        8
 66
     7
 43
1.0
 76
     1
 77
     6
 78
     2
 67
     7
 79
     5
170
     0
171
     0
290
     0
174
     0
 93
       13
 44
0.0
173
     0
291
     1
 45
0.0
1001
ACAD
1000
AcDbSavedByObjectVersion
1070
     0
  0
VISUALSTYLE
  5
2C
102
{ACAD_REACTORS
330
2A
102
}
330
2A
100
AcDbVisualStyle
  2
FlatWithEdges
 70
     1
 71
     2
 72
     1
 73
     1
 90
        2
 40
-0.6
 41
30.0
 62
     5
 63
     7
421
 16777215
 74
     1
 91
        4
 64
     7
 65
   257
 75
     1
175
     1
 42
1.0
 92
        0
 66
   257
 43
1.0
 76
     1
 77
     6
 78
     2
 67
     7
 79
     5
170
     0
171
     0
290
     0
174
     0
 93
       13
 44
0.0
173
     0
291
     1
 45
0.0
1001
ACAD
1000
AcDbSavedByObjectVersion
1070
     0
  0
VISUALSTYLE
  5
2D
102
{ACAD_REACTORS
330
2A
102
}
330
2A
100
AcDbVisualStyle
  2
Gouraud
 70
     2
 71
     2
 72
     2
 73
     1
 90
        2
 40
-0.6
 41
30.0
 62
     5
 63
     7
421
 16777215
 74
     0
 91
        4
 64
     7
 65
   257
 75
     1
175
     1
 42
1.0
 92
        0
 66
     7
 43
1.0
 76
     1
 77
     6
 78
     2
 67
     7
 79
     5
170
     0
171
     0
290
     0
174
     0
 93
       13
 44
0.0
173
     0
291
     1
 45
0.0
1001
ACAD
1000
AcDbSavedByObjectVersion
1070
     0
  0
VISUALSTYLE
  5
2E
102
{ACAD_REACTORS
330
2A
102
}
330
2A
100
AcDbVisualStyle
  2
GouraudWithEdges
 70
     3
 71
     2
 72
     2
 73
     1
 90
        2
 40
-0.6
 41
30.0
 62
     5
 63
     7
421
 16777215
 74
     1
 91
        4
 64
     7
 65
   257
 75
     1
175
     1
 42
1.0
 92
        0
 66
   257
 43
1.0
 76
     1
 77
     6
 78
     2
 67
     7
 79
     5
170
     0
171
     0
290
     0
174
     0
 93
       13
 44
0.0
173
     0
291
     1
 45
0.0
1001
ACAD
1000
AcDbSavedByObjectVersion
1070
     0
  0
VISUALSTYLE
  5
38
102
{ACAD_REACTORS
330
2A
102
}
330
2A
100
AcDbVisualStyle
  2
Linepattern
 70
    14
 71
     2
 72
     2
 73
     0
 90
        0
 40
-0.6
 41
-30.0
 62
     5
 63
     7
421
 16777215
 74
     1
 91
        4
 64
     7
 65
   257
 75
     7
175
     7
 42
1.0
 92
        8
 66
     7
 43
1.0
 76
     1
 77
     6
 78
     2
 67
     7
 79
     5
170
     0
171
     0
290
     0
174
     0
 93
        1
 44
0.0
173
     0
291
     1
 45
0.0
1001
ACAD
1000
AcDbSavedByObjectVersion
1070
     0
  0
VISUALSTYLE
  5
33
102
{ACAD_REACTORS
330
2A
102
}
330
2A
100
AcDbVisualStyle
  2
Realistic
 70
     8
 71
     2
 72
     2
 73
     0
 90
        0
 40
-0.6
 41
-30.0
 62
     5
 63
     7
421
 16777215
 74
     1
 91
        0
 64
     7
 65
   257
 75
     1
175
     1
 42
1.0
 92
        8
 66
     8
424
  7895160
 43
1.0
 76
     1
 77
     6
 78
     2
 67
     7
 79
     5
170
     0
171
     0
290
     0
174
     0
 93
       13
 44
0.0
173
     0
291
     0
 45
0.0
1001
ACAD
1000
AcDbSavedByObjectVersion
1070
     0
  0
VISUALSTYLE
  5
37
102
{ACAD_REACTORS
330
2A
102
}
330
2A
100
AcDbVisualStyle
  2
Thicken
 70
    13
 71
     2
 72
     2
 73
     0
 90
        0
 40
-0.6
 41
-30.0
 62
     5
 63
     7
421
 16777215
 74
     1
 91
        4
 64
     7
 65
   257
 75
     1
175
     1
 42
1.0
 92
       12
 66
     7
 43
1.0
 76
     1
 77
     6
 78
     2
 67
     7
 79
     5
170
     0
171
     0
290
     0
174
     0
 93
        1
 44
0.0
173
     0
291
     1
 45
0.0
1001
ACAD
1000
AcDbSavedByObjectVersion
1070
     0
  0
ENDSEC
  0
EOF
